<svg width="400" height="458" viewBox="0 0 400 458" fill="none" xmlns="http://www.w3.org/2000/svg">
<path fill-rule="evenodd" clip-rule="evenodd" d="M16.6667 0H59.0909L136.364 74.2424H143.939V69.697H256.061V74.2424H262.121L340.909 0H381.818L400 24.2424V92.4242L371.212 153.03V201.515L359.091 225.758V281.818L301.515 365.152V393.939L251.515 433.333L234.848 457.576H165.152L148.485 433.333L98.4848 393.939V365.152L40.9091 281.818V225.758L28.7879 201.515V153.03L0 92.4242V24.2424L16.6667 0ZM248.485 287.879V221.212L289.394 193.939L316.667 215.152V239.394L248.485 287.879ZM110.606 193.939L83.3333 215.152V239.394L151.515 287.879V221.212L110.606 193.939ZM192.424 395.455L162.121 369.697H237.879L207.576 395.455V415.152H192.424V395.455Z" fill="#C80F2E"/>
</svg>
