<svg xmlns="http://www.w3.org/2000/svg" width="155" height="22" viewBox="0 0 155 22">
  <title>ripple_match_logo</title>
  <g id="Homepage_ver1" fill="#000000">
  <path d="M30.7,1.3a0.5,0.5,0,0,0-.5.3L24.6,13.4,18.9,1.6a0.5,0.5,0,0,0-.5-0.3H15.3a0.3,0.3,0,0,0-.3.4l9.2,18.3a0.4,0.4,0,0,0,.6,0l0.6-1.2L31.1,7.8V20.2a0.4,0.4,0,0,0,.4.4h2.4a0.4,0.4,0,0,0,.4-0.4V1.7a0.4,0.4,0,0,0-.4-0.4H30.7Z" style="fill-rule:evenodd"/><path d="M14.3,7.5A6.4,6.4,0,0,0,8,1.1H0.3a0.3,0.3,0,0,0-.3.4L1.1,3.6a0.6,0.6,0,0,0,.5.3H8a3.5,3.5,0,0,1,3.5,3.5A3.5,3.5,0,0,1,8,11.1H5.2a0.2,0.2,0,0,0-.2.3l4.4,8.8a0.7,0.7,0,0,0,.6.4h2.6a0.3,0.3,0,0,0,.3-0.5L9.7,13.7A6.5,6.5,0,0,0,14.3,7.5Z" style="fill-rule:evenodd"/><path d="M51.8,11.1a2.9,2.9,0,0,0,1.8-.4,1.7,1.7,0,0,0,.5-1.3,1.4,1.4,0,0,0-.5-1.3,3.3,3.3,0,0,0-1.8-.3H49.5v7.6a0.3,0.3,0,0,1-.3.3h-1a0.3,0.3,0,0,1-.3-0.3V6.6a0.3,0.3,0,0,1,.3-0.3h3.5a5,5,0,0,1,3,.7,2.7,2.7,0,0,1,.9,2.3,2.7,2.7,0,0,1-2,2.9l2.2,3.1a0.2,0.2,0,0,1-.2.3H54.3L54,15.5l-3-4.2a0.1,0.1,0,0,1,.1-0.2h0.7Z"/><path d="M59.2,6.4h1a0.3,0.3,0,0,1,.3.3v8.7a0.3,0.3,0,0,1-.3.3h-1a0.3,0.3,0,0,1-.3-0.3V6.6A0.3,0.3,0,0,1,59.2,6.4Z"/><path d="M70.4,7.2a3.1,3.1,0,0,1,1,2.5,3,3,0,0,1-1,2.5,4.9,4.9,0,0,1-3,.8H65.6v2.5a0.3,0.3,0,0,1-.3.3h-1a0.3,0.3,0,0,1-.3-0.3V6.6a0.3,0.3,0,0,1,.3-0.3h2.9A4.8,4.8,0,0,1,70.4,7.2ZM69.2,11a2.1,2.1,0,0,0,.5-1.5,1.5,1.5,0,0,0-.6-1.4,3.4,3.4,0,0,0-1.9-.4H65.6v3.7h1.8A2.4,2.4,0,0,0,69.2,11Z"/><path d="M80.5,7.2a3.1,3.1,0,0,1,1,2.5,3,3,0,0,1-1,2.5,4.9,4.9,0,0,1-3,.8H75.7v2.5a0.3,0.3,0,0,1-.3.3h-1a0.3,0.3,0,0,1-.3-0.3V6.6a0.3,0.3,0,0,1,.3-0.3h2.9A4.8,4.8,0,0,1,80.5,7.2ZM79.3,11a2.1,2.1,0,0,0,.5-1.5,1.5,1.5,0,0,0-.6-1.4,3.4,3.4,0,0,0-1.9-.4H75.7v3.7h1.8A2.4,2.4,0,0,0,79.3,11Z"/><path d="M84.3,15.4V6.6a0.3,0.3,0,0,1,.3-0.3h1a0.3,0.3,0,0,1,.3.3v7.5h4a0.3,0.3,0,0,1,.3.3v0.9a0.3,0.3,0,0,1-.3.3H84.5A0.3,0.3,0,0,1,84.3,15.4Z"/><path d="M99.3,6.6V7.6a0.3,0.3,0,0,1-.3.3H94.4v2.5h4.2a0.3,0.3,0,0,1,.3.3v0.8a0.3,0.3,0,0,1-.3.3H94.4v2.5h4.8a0.3,0.3,0,0,1,.3.3v0.9a0.3,0.3,0,0,1-.3.3H93.1a0.3,0.3,0,0,1-.3-0.3V6.6a0.3,0.3,0,0,1,.3-0.3h6A0.3,0.3,0,0,1,99.3,6.6Z"/><path d="M103.8,15.7h-1a0.3,0.3,0,0,1-.3-0.3V6.6a0.3,0.3,0,0,1,.3-0.3h2L105,6.6l2.7,5.6,2.7-5.6,0.3-.2h1.9a0.3,0.3,0,0,1,.3.3v8.7a0.3,0.3,0,0,1-.3.3h-1a0.3,0.3,0,0,1-.3-0.3v-7l-3.1,6.2-0.3.2h-0.4l-0.3-.2-3.1-6.2v7A0.3,0.3,0,0,1,103.8,15.7Z"/><path d="M120.2,8.3L117,15.5l-0.3.2h-1.1a0.2,0.2,0,0,1-.2-0.3l3.9-8.8,0.3-.2h1.3l0.3,0.2,3.9,8.8a0.2,0.2,0,0,1-.2.3h-1.1l-0.3-.2Z"/><path d="M130.9,7.8v7.6a0.3,0.3,0,0,1-.3.3h-1a0.3,0.3,0,0,1-.3-0.3V7.8h-2.5a0.3,0.3,0,0,1-.3-0.3V6.6a0.3,0.3,0,0,1,.3-0.3h6.7a0.3,0.3,0,0,1,.3.3V7.5a0.3,0.3,0,0,1-.3.3h-2.5Z"/><path d="M140.7,14.2a3.3,3.3,0,0,0,1.4-.3l1-.7h0.4l0.6,0.7a0.3,0.3,0,0,1,0,.4,4.6,4.6,0,0,1-3.4,1.4,4.8,4.8,0,0,1-3.5-1.4,4.6,4.6,0,0,1-1.4-3.4,4.6,4.6,0,0,1,1.4-3.5,4.9,4.9,0,0,1,3.6-1.4,4.7,4.7,0,0,1,3.4,1.4,0.3,0.3,0,0,1,0,.4l-0.6.7a0.3,0.3,0,0,1-.4,0l-1.1-.7-1.4-.3a3.3,3.3,0,0,0-2.4.9,3.1,3.1,0,0,0-1,2.3,3.2,3.2,0,0,0,1,2.4A3.1,3.1,0,0,0,140.7,14.2Z"/><path d="M147.2,15.4V6.6a0.3,0.3,0,0,1,.3-0.3h1a0.3,0.3,0,0,1,.3.3v3.8h4.6V6.6a0.3,0.3,0,0,1,.3-0.3h1a0.3,0.3,0,0,1,.3.3v8.7a0.3,0.3,0,0,1-.3.3h-1a0.3,0.3,0,0,1-.3-0.3V11.9h-4.6v3.5a0.3,0.3,0,0,1-.3.3h-1A0.3,0.3,0,0,1,147.2,15.4Z"/>
  </g>
</svg>
