<?xml version="1.0" standalone="no"?>
<!DOCTYPE svg PUBLIC "-//W3C//DTD SVG 20010904//EN"
 "http://www.w3.org/TR/2001/REC-SVG-20010904/DTD/svg10.dtd">
<svg version="1.0" xmlns="http://www.w3.org/2000/svg"
 width="2310.000000pt" height="1080.000000pt" viewBox="0 0 2310.000000 1080.000000"
 preserveAspectRatio="xMidYMid meet">
<metadata>
Created by potrace 1.15, written by Peter Selinger 2001-2017
</metadata>
<g transform="translate(0.000000,1080.000000) scale(0.100000,-0.100000)"
fill="#000000" stroke="none">
<path d="M1150 7585 l0 -285 285 0 285 0 0 285 0 285 -285 0 -285 0 0 -285z"/>
<path d="M18032 7108 l3 -733 190 0 190 0 0 730 0 730 -193 3 -192 2 2 -732z"/>
<path d="M2010 7355 l0 -235 230 0 230 0 0 235 0 235 -230 0 -230 0 0 -235z"/>
<path d="M20197 7374 c-3 -3 -47 -7 -99 -9 -120 -4 -217 -15 -224 -26 -3 -5
-17 -9 -31 -9 -29 0 -129 -26 -155 -40 -10 -6 -24 -10 -32 -10 -7 0 -27 -7
-42 -15 -16 -8 -37 -15 -46 -15 -10 0 -18 -4 -18 -10 0 -5 -9 -10 -20 -10 -11
0 -20 -4 -20 -9 0 -5 -10 -12 -22 -16 -13 -4 -25 -8 -28 -10 -3 -1 -14 -6 -25
-10 -11 -5 -22 -12 -25 -15 -3 -4 -23 -18 -46 -31 -89 -52 -129 -84 -213 -167
-48 -48 -100 -102 -115 -121 -42 -49 -123 -212 -131 -262 -4 -24 -11 -49 -15
-54 -5 -6 -10 -38 -12 -72 -2 -33 -6 -59 -10 -56 -5 2 -8 -39 -8 -92 0 -53 3
-94 8 -92 4 3 8 -25 10 -61 2 -37 8 -70 14 -73 5 -3 9 -9 8 -13 -4 -11 11 -98
20 -115 4 -9 20 -43 36 -76 39 -85 102 -170 176 -241 57 -54 141 -119 160
-123 16 -3 43 -15 48 -20 11 -13 69 -41 83 -41 9 0 17 -4 19 -9 2 -5 14 -11
28 -13 14 -1 27 -6 30 -9 3 -3 39 -11 80 -18 160 -25 175 -28 165 -31 -10 -3
33 -12 150 -30 39 -6 79 -15 90 -20 11 -5 36 -11 55 -14 19 -3 73 -12 120 -21
47 -9 106 -19 133 -22 26 -3 47 -8 47 -13 0 -4 27 -11 61 -14 33 -4 71 -11 84
-16 13 -5 42 -10 65 -12 22 -1 40 -5 40 -9 0 -3 22 -9 50 -13 27 -4 52 -11 55
-16 3 -6 17 -10 30 -10 13 0 27 -4 30 -10 3 -5 13 -10 21 -10 8 0 54 -19 102
-42 68 -34 104 -60 165 -121 43 -43 75 -82 72 -87 -4 -6 -3 -10 2 -10 12 0 42
-77 50 -125 8 -58 2 -180 -11 -225 -31 -105 -129 -229 -216 -276 -19 -11 -37
-21 -40 -24 -3 -3 -21 -13 -40 -22 -89 -42 -138 -61 -172 -66 -21 -2 -38 -9
-38 -13 0 -5 -15 -9 -33 -9 -18 0 -37 -4 -43 -10 -14 -14 -494 -43 -494 -29 0
5 -68 11 -227 22 -7 0 -13 4 -13 9 0 4 -13 8 -29 8 -17 0 -33 5 -36 10 -3 6
-17 10 -30 10 -13 0 -41 7 -62 16 -21 9 -47 20 -58 25 -57 22 -139 65 -170 88
-19 14 -46 34 -61 45 -28 20 -114 146 -114 168 0 8 -5 19 -10 24 -6 6 -14 43
-17 82 -3 40 -10 72 -15 72 -5 0 -6 5 -3 10 4 7 -74 10 -226 10 l-232 0 6
-102 c6 -108 14 -139 62 -253 38 -93 69 -145 130 -220 44 -55 58 -69 135 -135
49 -42 74 -60 125 -92 11 -7 22 -16 25 -20 8 -11 223 -118 237 -118 6 0 28 -8
50 -19 50 -24 135 -51 161 -51 12 0 24 -4 27 -10 3 -6 21 -10 40 -10 19 0 36
-4 39 -9 4 -5 50 -12 104 -16 53 -4 106 -10 117 -13 34 -9 315 -14 315 -5 0 4
33 9 73 11 90 4 235 26 272 42 11 5 34 12 50 16 40 10 36 9 65 18 26 8 42 14
102 40 20 9 43 16 52 16 9 0 16 5 16 10 0 6 6 10 12 10 19 0 118 52 118 62 0
4 6 8 13 8 26 0 174 112 259 197 48 48 86 88 84 91 -3 2 8 17 22 34 15 16 26
33 25 36 -1 4 6 16 16 27 18 20 38 61 61 125 6 19 16 44 20 55 18 43 34 170
35 265 0 99 -22 277 -36 286 -5 3 -9 16 -9 29 0 13 -4 27 -10 30 -5 3 -10 13
-10 22 0 20 -62 143 -72 143 -5 0 -8 6 -8 13 0 20 -196 217 -216 217 -3 0 -20
11 -37 24 -54 39 -200 105 -239 108 -21 1 -38 6 -38 10 0 4 -20 8 -45 8 -25 0
-45 4 -45 8 0 5 -33 14 -72 20 -113 17 -141 23 -163 32 -11 5 -42 12 -70 16
-27 4 -57 9 -65 10 -8 2 -33 7 -55 10 -22 4 -45 10 -50 15 -6 4 -32 9 -58 10
-26 2 -47 6 -47 10 0 4 -32 10 -70 14 -39 4 -73 11 -76 16 -3 5 -23 9 -44 9
-21 0 -41 4 -44 9 -3 5 -37 12 -76 16 -39 4 -73 11 -76 16 -3 5 -16 9 -30 9
-13 0 -32 4 -42 9 -9 5 -45 17 -79 27 -35 11 -63 22 -63 26 0 5 -7 8 -16 8
-29 0 -141 70 -208 129 -40 37 -99 130 -113 181 -24 85 -25 268 -2 296 5 7 9
16 7 20 -1 5 8 32 21 59 25 54 175 210 192 200 5 -4 9 -1 9 4 0 6 7 11 15 11
8 0 15 5 15 10 0 6 5 10 11 10 6 0 27 7 47 16 21 9 48 21 62 26 14 6 33 14 43
19 9 5 38 12 62 16 25 3 48 10 51 14 3 5 22 9 43 9 20 0 42 5 48 11 8 8 79 12
228 12 149 0 220 -4 228 -12 6 -6 28 -11 48 -11 21 0 40 -4 43 -9 3 -4 26 -11
51 -14 24 -4 53 -11 62 -15 10 -5 67 -33 128 -63 76 -38 128 -71 170 -110 60
-57 115 -142 115 -179 0 -11 5 -20 10 -20 6 0 10 -15 10 -33 0 -18 7 -54 16
-80 l16 -47 210 0 c168 0 212 3 224 14 12 12 12 30 5 103 -12 109 -32 203 -43
203 -4 0 -8 8 -8 17 0 17 -48 122 -61 133 -3 3 -22 30 -41 60 -37 59 -180 201
-244 244 -22 14 -55 37 -74 50 -19 14 -41 25 -47 25 -7 1 -13 4 -13 9 0 8 -73
42 -90 42 -6 0 -10 3 -10 8 0 8 -43 28 -83 38 -15 3 -30 10 -33 15 -3 5 -15 9
-28 9 -12 0 -26 3 -30 7 -8 8 -89 31 -141 39 -16 3 -39 9 -50 14 -28 12 -114
22 -220 26 -49 2 -100 5 -112 8 -11 2 -23 2 -26 0z"/>
<path d="M17905 7349 c-27 -5 -68 -11 -90 -15 -22 -3 -44 -10 -50 -14 -5 -4
-34 -11 -62 -15 -29 -4 -55 -11 -59 -16 -3 -5 -13 -9 -23 -9 -10 0 -32 -7 -47
-15 -16 -8 -39 -15 -51 -15 -13 0 -23 -4 -23 -10 0 -5 -9 -10 -20 -10 -11 0
-20 -4 -20 -10 0 -5 -5 -10 -11 -10 -16 0 -79 -30 -114 -54 -16 -12 -30 -19
-30 -16 0 8 -160 -96 -174 -114 -8 -9 -18 -16 -23 -16 -19 0 -206 -170 -290
-264 -110 -122 -119 -134 -147 -181 -13 -22 -32 -49 -42 -60 -28 -33 -159
-278 -159 -299 0 -8 -24 -65 -40 -96 -4 -9 -11 -36 -15 -60 -4 -25 -11 -49
-15 -55 -4 -5 -10 -23 -13 -40 -16 -81 -27 -145 -34 -190 -9 -64 -10 -465 -1
-530 4 -27 10 -72 13 -100 4 -27 10 -59 15 -70 5 -11 11 -31 14 -45 15 -75 34
-138 57 -182 5 -10 9 -23 9 -30 0 -36 170 -343 229 -414 14 -17 48 -60 75 -95
108 -140 307 -313 486 -424 68 -42 174 -95 190 -95 6 0 10 -4 10 -9 0 -5 13
-11 29 -14 16 -4 49 -15 73 -26 52 -23 141 -51 163 -51 8 0 23 -4 33 -9 25
-13 108 -30 182 -36 36 -4 79 -9 95 -12 17 -3 84 -8 150 -10 112 -5 155 -1
355 27 141 20 150 22 156 31 3 5 18 9 33 9 15 0 31 3 35 7 4 5 11 8 14 9 16 2
69 16 87 24 127 52 215 94 215 102 0 5 8 8 18 8 9 0 27 8 39 18 l22 17 -56 45
c-63 50 -202 203 -241 265 -13 22 -26 41 -27 43 -2 2 -11 -1 -22 -6 -76 -39
-110 -53 -144 -58 -21 -4 -39 -10 -39 -15 0 -5 -16 -9 -36 -9 -19 0 -44 -4
-54 -10 -41 -22 -304 -34 -472 -21 -90 6 -167 16 -172 21 -6 6 -22 10 -37 10
-15 0 -30 4 -33 9 -3 5 -26 12 -51 15 -24 4 -47 11 -50 17 -4 5 -15 9 -26 9
-10 0 -19 5 -19 10 0 6 -7 10 -15 10 -18 0 -131 59 -192 101 -24 16 -46 29
-49 29 -8 0 -159 128 -203 171 -113 114 -281 357 -281 408 0 6 -4 11 -10 11
-5 0 -10 6 -10 14 0 7 -7 27 -15 42 -8 16 -15 39 -15 51 0 12 -4 25 -10 28 -5
3 -10 17 -10 30 0 13 -4 26 -9 29 -5 3 -11 23 -15 43 -3 21 -8 49 -11 63 -4
14 -9 69 -12 122 -3 54 -8 96 -12 93 -4 -2 -6 8 -4 23 2 15 8 86 13 157 5 72
12 144 16 160 3 17 8 49 11 73 3 23 9 42 14 42 5 0 9 11 9 24 0 14 5 28 10 31
6 3 10 13 10 22 0 34 83 203 147 295 69 102 63 95 168 206 115 120 246 222
355 274 25 12 47 25 50 28 4 5 29 18 50 25 15 5 47 18 65 25 44 19 117 40 140
40 13 0 27 5 30 10 3 6 20 10 36 10 58 0 60 7 57 251 -2 138 -7 223 -13 224
-5 1 -32 -2 -60 -6z"/>
<path d="M18474 7337 c-2 -7 -3 -111 -2 -232 l3 -220 30 -3 c17 -2 34 -8 40
-13 5 -5 19 -9 30 -9 24 0 102 -24 154 -47 18 -8 39 -16 45 -18 17 -3 50 -18
56 -24 10 -11 50 -31 63 -31 7 0 23 21 36 48 49 101 121 187 229 271 24 19 40
37 35 42 -8 8 -66 40 -153 86 -25 12 -53 23 -62 23 -10 0 -18 3 -18 8 0 8 -40
26 -80 37 -14 3 -36 11 -50 17 -14 6 -34 14 -45 19 -22 9 -108 28 -168 36 -20
3 -40 9 -43 14 -8 14 -94 11 -100 -4z"/>
<path d="M2720 7130 l0 -200 -190 0 -190 0 0 -150 0 -150 -150 0 -150 0 0
-155 0 -155 -235 0 -235 0 0 -1320 0 -1320 1495 0 1495 0 0 420 0 420 -1040 0
-1040 0 0 995 0 995 1040 0 1040 0 0 410 0 410 -920 0 -920 0 0 -200z"/>
<path d="M1090 6930 l0 -160 160 0 160 0 0 160 0 160 -160 0 -160 0 0 -160z"/>
<path d="M1740 6685 l0 -85 80 0 80 0 0 85 0 85 -80 0 -80 0 0 -85z"/>
<path d="M4650 5115 l0 -1435 1105 0 1105 0 0 1435 0 1435 -1105 0 -1105 0 0
-1435z m1620 10 l0 -805 -515 0 -515 0 0 805 0 805 515 0 515 0 0 -805z"/>
<path d="M6950 5115 l0 -1435 1105 0 1105 0 0 1435 0 1435 -295 0 -295 0 0
-1115 0 -1115 -515 0 -515 0 0 1115 0 1115 -295 0 -295 0 0 -1435z"/>
<path d="M9250 5115 l0 -1435 750 0 750 0 0 -495 0 -495 -735 0 -735 0 0 -355
0 -355 1090 0 1090 0 0 2285 0 2285 -1105 0 -1105 0 0 -1435z m1620 10 l0
-805 -515 0 -515 0 0 805 0 805 515 0 515 0 0 -805z"/>
<path d="M11560 5115 l0 -1435 304 0 303 0 189 75 c104 41 331 130 504 198
l315 123 3 -198 2 -198 295 0 295 0 0 1435 0 1435 -1105 0 -1105 0 0 -1435z
m1620 233 l0 -583 -498 -197 c-273 -109 -505 -200 -514 -204 -17 -6 -18 36
-18 780 l0 786 515 0 515 0 0 -582z"/>
<path d="M13870 5115 l0 -1435 350 0 350 0 0 935 0 935 456 0 455 0 28 -62
c16 -35 48 -107 71 -161 24 -54 49 -101 56 -104 16 -6 595 257 601 273 5 14
-484 994 -496 994 -5 0 -206 -72 -448 -161 -512 -188 -709 -259 -717 -259 -3
0 -6 108 -6 240 l0 240 -350 0 -350 0 0 -1435z"/>
</g>
</svg>
