<svg width="801" height="132" viewBox="0 0 801 132" fill="none" xmlns="http://www.w3.org/2000/svg">
<path fill-rule="evenodd" clip-rule="evenodd" d="M4.77269 0H16.9213L39.0493 21.2602H41.2187V19.9585H73.3258V21.2602H75.0614L97.6232 0H109.338L114.545 6.94209V26.4667L106.301 43.822V57.7061L102.83 64.6482V80.7018L86.3423 104.565V112.809L72.0242 124.09L67.2515 131.032H47.293L42.5203 124.09L28.2022 112.809V104.565L11.7148 80.7018V64.6482L8.24373 57.7061V43.822L0 26.4667V6.94209L4.77269 0ZM71.1564 82.4373V63.3466L82.8712 55.5367L90.6811 61.6111V68.5532L71.1564 82.4373ZM31.6733 55.5367L23.8634 61.6111V68.5532L43.3881 82.4373V63.3466L31.6733 55.5367ZM55.1029 113.243L46.4252 105.867H68.1193L59.4417 113.243V118.883H55.1029V113.243Z" fill="#C80F2E"/>
<mask id="path-2-outside-1_327_310" maskUnits="userSpaceOnUse" x="157.979" y="25.8384" width="643" height="80" fill="black">
<rect fill="white" x="157.979" y="25.8384" width="643" height="80"/>
<path d="M159.979 42.2635C159.979 34.2974 166.439 27.8384 174.405 27.8384H220.91V40.6488H176.773C175.051 40.6488 173.651 42.0482 173.651 43.8783V87.1537C173.651 88.9838 175.051 90.3832 176.773 90.3832H220.91V103.194H174.405C166.439 103.194 159.979 96.7346 159.979 88.7685V42.2635Z"/>
<path d="M289.928 27.8384C297.894 27.8384 304.353 34.2974 304.353 42.2635V88.7685C304.353 96.7346 297.894 103.194 289.928 103.194H245.038C237.071 103.194 230.612 96.7346 230.612 88.7685V42.2635C230.612 34.2974 237.071 27.8384 245.038 27.8384H289.928ZM290.789 87.1537V43.8783C290.789 42.0482 289.282 40.6488 287.559 40.6488H247.406C245.683 40.6488 244.284 42.0482 244.284 43.8783V87.1537C244.284 88.9838 245.683 90.3832 247.406 90.3832H287.559C289.282 90.3832 290.789 88.9838 290.789 87.1537Z"/>
<path d="M378.25 87.1537V27.8384H391.814V88.7685C391.814 96.7346 385.355 103.194 377.389 103.194H332.498C324.532 103.194 318.073 96.7346 318.073 88.7685V27.8384H331.745V87.1537C331.745 88.9838 333.144 90.3832 334.867 90.3832H375.02C376.743 90.3832 378.25 88.9838 378.25 87.1537Z"/>
<path d="M439.967 71.975V59.057H479.26V88.7685C479.26 96.7346 472.8 103.194 464.834 103.194H419.944C411.978 103.194 405.519 96.7346 405.519 88.7685V42.2635C405.519 34.2974 411.978 27.8384 419.944 27.8384H476.03V40.6488H422.312C420.59 40.6488 419.191 42.0482 419.191 43.8783V87.1537C419.191 88.9838 420.59 90.3832 422.312 90.3832H462.466C464.188 90.3832 465.696 88.9838 465.696 87.1537V71.975H439.967Z"/>
<path d="M519.274 27.8384H535.314L568.901 103.194H555.337L547.048 84.7854H507.433L499.251 103.194H485.58L519.274 27.8384ZM513.138 71.975H541.343L527.24 40.4335L513.138 71.975Z"/>
<path d="M636.287 76.3887H631.443L653.942 103.194H637.902L615.403 76.3887H590.643V103.194H576.972V27.8384H636.287C644.253 27.8384 650.712 34.2974 650.712 42.2635V61.8559C650.712 69.9297 644.253 76.3887 636.287 76.3887ZM590.643 63.4706H633.919C635.641 63.4706 637.148 62.0712 637.148 60.3488V43.8783C637.148 42.0482 635.641 40.6488 633.919 40.6488H590.643V63.4706Z"/>
<path d="M663.989 42.2635C663.989 34.2974 670.448 27.8384 678.414 27.8384H724.919V40.6488H680.783C679.06 40.6488 677.661 42.0482 677.661 43.8783V87.1537C677.661 88.9838 679.06 90.3832 680.783 90.3832H724.919V103.194H678.414C670.448 103.194 663.989 96.7346 663.989 88.7685V42.2635Z"/>
<path d="M784.68 59.057C792.646 59.057 799.105 65.516 799.105 73.4821V88.7685C799.105 96.7346 792.646 103.194 784.68 103.194H734.084V90.3832H782.204C784.034 90.3832 785.433 88.9838 785.433 87.1537V75.0969C785.433 73.3745 784.034 71.975 782.204 71.975H747.755C739.789 71.975 733.33 65.516 733.33 57.5499V42.2635C733.33 34.2974 739.789 27.8384 747.755 27.8384H797.49V40.6488H750.124C748.401 40.6488 747.002 42.0482 747.002 43.8783V55.9351C747.002 57.6575 748.401 59.057 750.124 59.057H784.68Z"/>
</mask>
<path d="M159.979 42.2635C159.979 34.2974 166.439 27.8384 174.405 27.8384H220.91V40.6488H176.773C175.051 40.6488 173.651 42.0482 173.651 43.8783V87.1537C173.651 88.9838 175.051 90.3832 176.773 90.3832H220.91V103.194H174.405C166.439 103.194 159.979 96.7346 159.979 88.7685V42.2635Z" fill="#C80F2E"/>
<path d="M289.928 27.8384C297.894 27.8384 304.353 34.2974 304.353 42.2635V88.7685C304.353 96.7346 297.894 103.194 289.928 103.194H245.038C237.071 103.194 230.612 96.7346 230.612 88.7685V42.2635C230.612 34.2974 237.071 27.8384 245.038 27.8384H289.928ZM290.789 87.1537V43.8783C290.789 42.0482 289.282 40.6488 287.559 40.6488H247.406C245.683 40.6488 244.284 42.0482 244.284 43.8783V87.1537C244.284 88.9838 245.683 90.3832 247.406 90.3832H287.559C289.282 90.3832 290.789 88.9838 290.789 87.1537Z" fill="#C80F2E"/>
<path d="M378.25 87.1537V27.8384H391.814V88.7685C391.814 96.7346 385.355 103.194 377.389 103.194H332.498C324.532 103.194 318.073 96.7346 318.073 88.7685V27.8384H331.745V87.1537C331.745 88.9838 333.144 90.3832 334.867 90.3832H375.02C376.743 90.3832 378.25 88.9838 378.25 87.1537Z" fill="#C80F2E"/>
<path d="M439.967 71.975V59.057H479.26V88.7685C479.26 96.7346 472.8 103.194 464.834 103.194H419.944C411.978 103.194 405.519 96.7346 405.519 88.7685V42.2635C405.519 34.2974 411.978 27.8384 419.944 27.8384H476.03V40.6488H422.312C420.59 40.6488 419.191 42.0482 419.191 43.8783V87.1537C419.191 88.9838 420.59 90.3832 422.312 90.3832H462.466C464.188 90.3832 465.696 88.9838 465.696 87.1537V71.975H439.967Z" fill="#C80F2E"/>
<path d="M519.274 27.8384H535.314L568.901 103.194H555.337L547.048 84.7854H507.433L499.251 103.194H485.58L519.274 27.8384ZM513.138 71.975H541.343L527.24 40.4335L513.138 71.975Z" fill="#C80F2E"/>
<path d="M636.287 76.3887H631.443L653.942 103.194H637.902L615.403 76.3887H590.643V103.194H576.972V27.8384H636.287C644.253 27.8384 650.712 34.2974 650.712 42.2635V61.8559C650.712 69.9297 644.253 76.3887 636.287 76.3887ZM590.643 63.4706H633.919C635.641 63.4706 637.148 62.0712 637.148 60.3488V43.8783C637.148 42.0482 635.641 40.6488 633.919 40.6488H590.643V63.4706Z" fill="#C80F2E"/>
<path d="M663.989 42.2635C663.989 34.2974 670.448 27.8384 678.414 27.8384H724.919V40.6488H680.783C679.06 40.6488 677.661 42.0482 677.661 43.8783V87.1537C677.661 88.9838 679.06 90.3832 680.783 90.3832H724.919V103.194H678.414C670.448 103.194 663.989 96.7346 663.989 88.7685V42.2635Z" fill="#C80F2E"/>
<path d="M784.68 59.057C792.646 59.057 799.105 65.516 799.105 73.4821V88.7685C799.105 96.7346 792.646 103.194 784.68 103.194H734.084V90.3832H782.204C784.034 90.3832 785.433 88.9838 785.433 87.1537V75.0969C785.433 73.3745 784.034 71.975 782.204 71.975H747.755C739.789 71.975 733.33 65.516 733.33 57.5499V42.2635C733.33 34.2974 739.789 27.8384 747.755 27.8384H797.49V40.6488H750.124C748.401 40.6488 747.002 42.0482 747.002 43.8783V55.9351C747.002 57.6575 748.401 59.057 750.124 59.057H784.68Z" fill="#C80F2E"/>
<path d="M159.979 42.2635C159.979 34.2974 166.439 27.8384 174.405 27.8384H220.91V40.6488H176.773C175.051 40.6488 173.651 42.0482 173.651 43.8783V87.1537C173.651 88.9838 175.051 90.3832 176.773 90.3832H220.91V103.194H174.405C166.439 103.194 159.979 96.7346 159.979 88.7685V42.2635Z" stroke="#C80F2E" stroke-width="3.58835" mask="url(#path-2-outside-1_327_310)"/>
<path d="M289.928 27.8384C297.894 27.8384 304.353 34.2974 304.353 42.2635V88.7685C304.353 96.7346 297.894 103.194 289.928 103.194H245.038C237.071 103.194 230.612 96.7346 230.612 88.7685V42.2635C230.612 34.2974 237.071 27.8384 245.038 27.8384H289.928ZM290.789 87.1537V43.8783C290.789 42.0482 289.282 40.6488 287.559 40.6488H247.406C245.683 40.6488 244.284 42.0482 244.284 43.8783V87.1537C244.284 88.9838 245.683 90.3832 247.406 90.3832H287.559C289.282 90.3832 290.789 88.9838 290.789 87.1537Z" stroke="#C80F2E" stroke-width="3.58835" mask="url(#path-2-outside-1_327_310)"/>
<path d="M378.25 87.1537V27.8384H391.814V88.7685C391.814 96.7346 385.355 103.194 377.389 103.194H332.498C324.532 103.194 318.073 96.7346 318.073 88.7685V27.8384H331.745V87.1537C331.745 88.9838 333.144 90.3832 334.867 90.3832H375.02C376.743 90.3832 378.25 88.9838 378.25 87.1537Z" stroke="#C80F2E" stroke-width="3.58835" mask="url(#path-2-outside-1_327_310)"/>
<path d="M439.967 71.975V59.057H479.26V88.7685C479.26 96.7346 472.8 103.194 464.834 103.194H419.944C411.978 103.194 405.519 96.7346 405.519 88.7685V42.2635C405.519 34.2974 411.978 27.8384 419.944 27.8384H476.03V40.6488H422.312C420.59 40.6488 419.191 42.0482 419.191 43.8783V87.1537C419.191 88.9838 420.59 90.3832 422.312 90.3832H462.466C464.188 90.3832 465.696 88.9838 465.696 87.1537V71.975H439.967Z" stroke="#C80F2E" stroke-width="3.58835" mask="url(#path-2-outside-1_327_310)"/>
<path d="M519.274 27.8384H535.314L568.901 103.194H555.337L547.048 84.7854H507.433L499.251 103.194H485.58L519.274 27.8384ZM513.138 71.975H541.343L527.24 40.4335L513.138 71.975Z" stroke="#C80F2E" stroke-width="3.58835" mask="url(#path-2-outside-1_327_310)"/>
<path d="M636.287 76.3887H631.443L653.942 103.194H637.902L615.403 76.3887H590.643V103.194H576.972V27.8384H636.287C644.253 27.8384 650.712 34.2974 650.712 42.2635V61.8559C650.712 69.9297 644.253 76.3887 636.287 76.3887ZM590.643 63.4706H633.919C635.641 63.4706 637.148 62.0712 637.148 60.3488V43.8783C637.148 42.0482 635.641 40.6488 633.919 40.6488H590.643V63.4706Z" stroke="#C80F2E" stroke-width="3.58835" mask="url(#path-2-outside-1_327_310)"/>
<path d="M663.989 42.2635C663.989 34.2974 670.448 27.8384 678.414 27.8384H724.919V40.6488H680.783C679.06 40.6488 677.661 42.0482 677.661 43.8783V87.1537C677.661 88.9838 679.06 90.3832 680.783 90.3832H724.919V103.194H678.414C670.448 103.194 663.989 96.7346 663.989 88.7685V42.2635Z" stroke="#C80F2E" stroke-width="3.58835" mask="url(#path-2-outside-1_327_310)"/>
<path d="M784.68 59.057C792.646 59.057 799.105 65.516 799.105 73.4821V88.7685C799.105 96.7346 792.646 103.194 784.68 103.194H734.084V90.3832H782.204C784.034 90.3832 785.433 88.9838 785.433 87.1537V75.0969C785.433 73.3745 784.034 71.975 782.204 71.975H747.755C739.789 71.975 733.33 65.516 733.33 57.5499V42.2635C733.33 34.2974 739.789 27.8384 747.755 27.8384H797.49V40.6488H750.124C748.401 40.6488 747.002 42.0482 747.002 43.8783V55.9351C747.002 57.6575 748.401 59.057 750.124 59.057H784.68Z" stroke="#C80F2E" stroke-width="3.58835" mask="url(#path-2-outside-1_327_310)"/>
</svg>
