<svg width="609" height="688" viewBox="0 0 609 688" fill="none" xmlns="http://www.w3.org/2000/svg">
<g clip-path="url(#clip0)">
<path d="M244.111 468.728L234.197 644.986L244.111 645.116L252.165 466.252L244.111 468.728Z" fill="#3F3D56"/>
<path d="M207.554 558.03H84.873V584.643H207.554V558.03Z" fill="#FEE7E7"/>
<path d="M215.609 581.542V598.252H88.8818C84.3959 595.026 79.9637 591.704 75.5852 588.288V581.542H215.609Z" fill="#3F3D56"/>
<path d="M240.913 543.51C240.566 545.113 240.114 546.698 239.637 548.276C238.231 552.837 236.539 557.337 236.211 562.077C235.771 568.341 237.45 575.625 233.113 580.174C231.997 581.35 230.541 582.229 229.544 583.485C229.39 583.682 229.249 583.889 229.122 584.104C228.23 585.577 228.125 587.372 228.112 589.056C228.123 592.646 228.357 596.232 228.813 599.794C230.281 612.048 233.181 624.327 229.37 635.894C228.68 637.901 227.875 639.866 226.96 641.78C225.101 645.865 223.075 649.894 222.468 654.319C222.022 657.599 222.158 660.979 222.133 664.314C220.175 663.691 218.219 663.056 216.266 662.408C204.464 658.509 192.795 654.177 181.258 649.411C181.289 649.244 181.32 649.071 181.345 648.904C182.231 643.395 181.017 637.763 179.542 632.391C176.444 621.01 172.057 609.739 169.461 598.277C168.415 593.8 167.73 589.247 167.41 584.661C167.336 583.634 167.292 582.6 167.286 581.567C167.255 580.218 167.286 578.868 167.342 577.507C167.472 574.79 167.59 571.565 165.415 569.913C164.219 569.015 162.639 568.861 161.245 568.316C158.556 567.27 156.716 564.844 154.584 562.901C153.568 561.915 152.326 561.192 150.967 560.793C149.608 560.394 148.172 560.332 146.784 560.611C132.855 563.798 122.619 575.6 109.657 581.567C109.155 581.802 108.653 582.025 108.145 582.235C106.469 582.848 104.873 583.663 103.393 584.661C102.353 585.382 101.599 586.444 101.261 587.663C100.933 588.975 101.218 590.349 101.379 591.698C101.64 593.892 101.546 596.113 101.1 598.277C100.932 599.116 100.711 599.943 100.437 600.753C99.9417 602.22 99.2787 603.655 98.6467 605.085C95.3422 602.865 92.0852 600.596 88.8756 598.277C84.3897 595.051 79.9575 591.729 75.579 588.313L72.9209 586.178C61.4623 577.215 50.7266 567.367 40.8131 556.724C42.1329 553.01 44.0413 549.557 44.9583 545.751C45.4787 543.566 45.6708 541.295 46.3896 539.172C47.2184 536.971 48.3711 534.906 49.8098 533.045C55.0785 525.705 61.5121 519.275 68.8563 514.007C76.5332 508.511 85.3997 504.104 92.3082 497.866C95.1118 495.414 97.5287 492.553 99.477 489.381C99.5947 489.189 99.7062 488.985 99.8054 488.762C100.345 487.642 100.718 486.449 100.914 485.222C101.41 482.449 101.336 479.404 101.584 476.743C110 478.198 118.579 478.456 127.068 477.51C136.95 476.402 146.616 473.661 156.499 472.596C157.242 472.509 157.992 472.441 158.742 472.379C161.908 472.126 165.08 472.07 168.259 472.107C170.917 472.107 173.575 472.225 176.233 472.311L205.497 473.302C208.737 473.413 212.046 473.537 215.064 474.719C218.645 476.124 221.514 478.921 223.812 481.997C224.104 482.393 224.395 482.789 224.667 483.198C226.559 485.954 228.076 488.949 229.178 492.104C229.296 492.426 229.407 492.723 229.513 493.076C229.792 493.936 230.033 494.802 230.25 495.681C230.417 496.368 230.566 497.055 230.702 497.748C231.384 501.177 231.787 504.68 232.865 507.991C232.939 508.233 233.02 508.474 233.106 508.709C234.401 512.336 236.551 515.585 238.175 519.07C239.345 521.592 240.239 524.234 240.839 526.948C242.053 532.4 242.078 538.048 240.913 543.51Z" fill="#35323E"/>
<path d="M151.963 322.022C149.349 319.943 145.557 321.465 142.496 322.808C139.93 323.941 137.288 324.894 134.59 325.662C134.038 325.874 133.439 325.936 132.855 325.841C131.616 325.544 131.095 324.077 130.172 323.186C128.567 321.645 125.94 322.01 123.871 322.846C121.801 323.681 119.757 324.888 117.538 324.702C115.172 324.517 113.114 322.771 110.723 322.716C106.509 322.617 102.972 327.803 98.9875 326.429C96.5587 325.593 94.6503 322.437 92.2587 323.334C90.3999 324.04 90.2326 326.608 89.1111 328.286C87.7913 330.241 85.22 330.792 83.0204 331.659C76.0871 334.394 71.4958 342.112 72.4004 349.502C72.9023 353.58 74.8788 357.319 76.1862 361.211C80.0649 372.531 78.7328 385.299 83.6214 396.217C84.241 395.635 84.588 395.418 85.189 394.843C83.6433 398.045 83.3451 401.707 84.3525 405.117C84.8668 406.831 85.7033 408.428 86.3353 410.105C86.9918 411.986 87.5217 413.909 87.9214 415.861L93.312 439.614C95.4186 448.898 97.5314 458.182 97.897 467.688C98.1246 473.869 97.6507 480.057 96.4843 486.131C106.249 484.516 115.184 480.19 125.079 480.246C128.71 480.246 132.31 480.865 135.91 481.36C146.405 482.827 156.992 483.544 167.59 483.507C169.238 483.601 170.889 483.37 172.447 482.826C173.811 482.245 174.926 481.211 176.215 480.462C178.736 478.977 181.791 478.606 184.697 478.606C197.95 478.364 210.72 483.21 223.887 484.918C229.085 474.019 229.395 460.961 225.405 449.566C224.221 446.181 222.629 442.882 222.158 439.324C221.969 437.136 221.919 434.939 222.009 432.745C221.989 427.128 220.976 421.559 219.017 416.294C218.248 414.233 217.325 412.135 217.406 409.938C217.486 407.741 218.571 405.692 219.636 403.749C221.799 399.788 223.973 395.79 227.028 392.448C230.157 388.994 234.073 386.364 237.945 383.783L247.506 377.371C246.199 369.121 244.513 360.432 241.013 352.844C237.512 345.256 232.276 338.281 225.194 333.843C222.806 332.409 220.308 331.167 217.722 330.13C214.103 328.608 210.336 327.265 206.414 327.036C201.953 326.782 197.56 327.976 193.155 328.719C179.288 331.052 162.968 330.768 151.963 322.022Z" fill="#FFCECE"/>
<path d="M256.503 465.188L251.955 470.925L243.379 481.737L233.466 494.233L230.696 497.724H225.324L92.302 497.878L8.99661 497.971H5.27901C4.78332 496.424 4.32482 494.877 3.90349 493.267C3.28389 490.965 2.74071 488.634 2.27394 486.274C2.1748 485.822 2.08806 485.37 2.00751 484.912L32.2317 465.175L43.5952 465.113L78.3548 464.915L97.7669 464.804H101.311H103.535L116.473 464.736L215.076 464.173L220.12 464.142H222.307L228.1 464.111L249.656 463.987L253.795 462.415L254.099 462.737L256.503 465.188Z" fill="#3F3D56"/>
<path d="M254.644 462.093L254.129 462.712L250.746 466.692L243.782 474.904L229.178 492.104L99.8054 488.805L2.24916 486.329C2.15002 485.878 2.06328 485.426 1.98273 484.968C0.501809 477.025 -0.152257 468.951 0.0309818 460.874L10.8492 455.341L13.3276 454.066L32.6158 444.163L49.5433 435.499L93.6961 441.23L103.473 442.499L107.897 443.068L114.372 443.91L114.917 443.984L216.452 457.136L227.673 458.59L234.259 459.444L254.557 462.081L254.644 462.093Z" fill="#504F60"/>
<path d="M233.577 491.801L233.472 494.233L232.852 507.967L229.519 583.473L228.813 599.794L226.954 641.78L225.907 665.497L222.127 664.314C220.169 663.691 218.213 663.056 216.259 662.408L225.324 497.779L225.516 494.326L229.507 493.088L233.577 491.801Z" fill="#3F3D56"/>
<path d="M9.28162 491.621L9.00281 497.977L8.59387 507.261C7.41249 504.327 6.33026 501.338 5.34716 498.293L5.25422 497.99C4.75853 496.442 4.30003 494.895 3.8787 493.286L9.28162 491.621Z" fill="#3F3D56"/>
<path d="M171.307 398.043C187.048 398.043 199.809 380.863 199.809 359.67C199.809 338.478 187.048 321.298 171.307 321.298C155.566 321.298 142.806 338.478 142.806 359.67C142.806 380.863 155.566 398.043 171.307 398.043Z" fill="#A1616A"/>
<path opacity="0.1" d="M171.307 398.043C187.048 398.043 199.809 380.863 199.809 359.67C199.809 338.478 187.048 321.298 171.307 321.298C155.566 321.298 142.806 338.478 142.806 359.67C142.806 380.863 155.566 398.043 171.307 398.043Z" fill="black"/>
<path d="M175.335 376.071C197.235 376.071 214.989 358.337 214.989 336.461C214.989 314.585 197.235 296.851 175.335 296.851C153.434 296.851 135.68 314.585 135.68 336.461C135.68 358.337 153.434 376.071 175.335 376.071Z" fill="#A1616A"/>
<path d="M176.122 275.413C173.701 275.605 171.297 275.971 168.928 276.508C162.658 278.031 157.236 281.41 151.957 284.727C149.59 286.219 147.155 287.772 145.687 289.963C143.047 293.893 144.07 298.894 142.589 303.257C141.821 305.498 140.408 307.509 139.212 309.595C135.922 315.313 134.199 321.595 132.508 327.815C132.161 329.103 132.062 330.848 133.468 331.343C134.278 331.511 135.121 331.416 135.872 331.071C140.315 329.604 145.959 329.183 149.256 332.16C152.552 335.137 152.273 340.416 156.195 342.681C160.687 345.299 167.701 342.137 171.778 345.225C173.526 346.55 174.158 348.672 175.589 350.269C178.922 353.983 185.335 353.803 190.67 353.054C193.731 352.621 197.486 352.33 199.344 354.478C200.237 355.493 200.491 356.885 201.525 357.801C203.384 359.46 206.786 358.618 208.601 356.916C210.417 355.214 211.284 352.912 212.796 351C215.739 347.286 220.913 345.262 223.949 341.592C226.489 338.498 227.257 334.623 227.951 330.885L230.535 317.028C231.582 311.408 232.536 305.269 229.37 300.317C228.243 298.535 226.625 297 225.653 295.156C225.002 293.918 224.636 292.612 223.881 291.442C222.984 290.224 221.913 289.143 220.702 288.236L214.587 283.18C212.496 281.352 210.26 279.696 207.901 278.229C199.171 273.147 186.097 274.484 176.122 275.413Z" fill="#464353"/>
<path d="M45.5097 377.445C44.0413 379.005 42.6843 380.688 41.1105 382.149C39.7261 383.379 38.2784 384.536 36.7733 385.615C34.3445 387.43 31.9694 389.31 29.6479 391.253C27.226 393.166 25.0345 395.353 23.1173 397.77C19.8087 402.208 18.2411 407.728 15.1431 412.315C12.4044 416.381 8.5443 419.593 5.76229 423.628C4.54181 425.325 3.63529 427.226 3.08561 429.242C2.67531 431.193 2.49029 433.184 2.53416 435.177C2.4784 438.445 2.42883 441.75 3.098 444.949C3.76717 448.149 5.23563 451.293 7.75121 453.391C10.0871 455.341 13.1046 456.238 16.0601 456.981C17.5843 457.359 19.2324 457.711 20.6823 457.111C21.7432 456.576 22.6641 455.8 23.3714 454.846L30.9119 446.181C35.9555 440.363 41.1973 434.422 48.1182 431.018C50.2868 429.96 52.5732 429.161 54.748 428.134C63.9676 423.696 70.4859 414.611 73.0138 404.708C73.6334 402.288 74.03 399.819 74.4327 397.349L75.5232 390.579C75.6069 390.239 75.6069 389.884 75.5232 389.545C75.3524 389.163 75.0776 388.837 74.7301 388.604C69.4778 384.367 64.5602 379.732 60.0208 374.741C58.9427 373.552 57.9327 371.925 56.6873 370.928C55.1259 369.69 55.2437 369.783 53.3663 370.928C50.4782 372.755 47.8377 374.945 45.5097 377.445Z" fill="#A1616A"/>
<path d="M97.0915 422.502C97.0288 422.358 96.9377 422.228 96.8236 422.121C96.7095 422.013 96.5748 421.929 96.4275 421.875C96.2803 421.821 96.1236 421.797 95.9668 421.804C95.81 421.812 95.6564 421.851 95.5151 421.92C95.3739 421.988 95.248 422.084 95.1449 422.203C95.0419 422.321 94.9638 422.459 94.9155 422.608C94.8671 422.757 94.8494 422.915 94.8635 423.071C94.8775 423.227 94.923 423.379 94.9973 423.517L94.3777 423.82L112.854 461.648L116.194 460.02L97.7173 422.168L97.0915 422.502Z" fill="#3F3D56"/>
<path opacity="0.04" d="M45.5097 377.445C44.0413 379.005 42.6843 380.688 41.1105 382.149C39.7261 383.379 38.2784 384.536 36.7733 385.615C34.3445 387.43 31.9694 389.31 29.6479 391.253C27.226 393.166 25.0345 395.353 23.1173 397.77C19.8087 402.208 18.2411 407.728 15.1431 412.315C12.4044 416.381 8.5443 419.593 5.76229 423.628C4.54181 425.325 3.63529 427.226 3.08561 429.242C2.67531 431.193 2.49029 433.184 2.53416 435.177C2.4784 438.445 2.42883 441.75 3.098 444.949C3.76717 448.149 5.23563 451.293 7.75121 453.391C10.0871 455.341 13.1046 456.238 16.0601 456.981C17.5843 457.359 19.2324 457.711 20.6823 457.111C21.7432 456.576 22.6641 455.8 23.3714 454.846L30.9119 446.181C35.9555 440.363 41.1973 434.422 48.1182 431.018C50.2868 429.96 52.5732 429.161 54.748 428.134C63.9676 423.696 70.4859 414.611 73.0138 404.708C73.6334 402.288 74.03 399.819 74.4327 397.349L75.5232 390.579C75.6069 390.239 75.6069 389.884 75.5232 389.545C75.3524 389.163 75.0776 388.837 74.7301 388.604C69.4778 384.367 64.5602 379.732 60.0208 374.741C58.9427 373.552 57.9327 371.925 56.6873 370.928C55.1259 369.69 55.2437 369.783 53.3663 370.928C50.4782 372.755 47.8377 374.945 45.5097 377.445Z" fill="black"/>
<path d="M259.111 447.159C259.049 451.108 258.894 455.174 257.252 458.776C256.546 460.335 255.449 461.87 253.807 462.384C252.814 462.613 251.785 462.651 250.777 462.495C238.621 461.428 226.372 462.399 214.537 465.367C217.697 459.054 215.882 451.485 216.755 444.479C216.997 442.567 217.437 440.685 217.604 438.767C218.224 431.959 215.305 425.349 213.967 418.627C212.805 412.809 212.805 406.819 213.967 401.001C214.195 399.503 214.71 398.064 215.485 396.761C216.393 395.494 217.585 394.458 218.967 393.735C223.986 390.882 229.903 390.554 235.541 390.931C239.34 391.185 246.955 390.826 250.121 393.159C253.584 395.716 254.681 404.3 255.617 408.267C257.017 414.351 257.97 420.53 258.467 426.754C259.074 433.537 259.204 440.351 259.111 447.159Z" fill="#A1616A"/>
<path d="M37.1637 460.862L59.4693 475.715L159.845 472.002L93.5474 460.862H37.1637Z" fill="white"/>
<path d="M66.5762 342.842C62.9143 346.067 59.8101 349.867 56.3403 353.302C51.5818 358.018 46.1727 362.028 40.7884 366.02C42.7189 366.559 44.4762 367.59 45.8882 369.011C47.3001 370.432 48.3184 372.196 48.8432 374.128C49.0786 375.038 49.1964 375.985 49.4628 376.876C50.0824 378.986 51.4455 380.806 52.9078 382.446C59.1905 389.52 67.9827 394.756 71.6879 403.489C71.8088 403.914 72.071 404.285 72.4314 404.541C72.7329 404.674 73.0677 404.713 73.3918 404.652C76.7438 404.3 79.309 401.601 81.4466 398.977C85.9077 393.407 89.7802 387.255 91.9798 380.459C94.1794 373.664 94.5326 366.15 92.1347 359.417C90.9389 356.062 89.0925 352.98 87.2585 349.929C85.6516 347.259 84.0489 344.594 82.4504 341.933C81.6139 340.528 80.5482 337.674 78.9062 336.981C75.3621 335.459 68.8501 340.571 66.5762 342.842Z" fill="#FFCECE"/>
<path d="M249.074 382.842L254.346 395.22C248.606 393.217 242.471 392.607 236.449 393.441C230.426 394.275 224.689 396.529 219.711 400.017C216.706 402.164 213.948 404.863 212.591 408.292C211.922 408.419 211.23 408.354 210.595 408.106C209.96 407.857 209.409 407.435 209.004 406.887C208.211 405.776 207.751 404.462 207.678 403.099C207.189 398.346 208.992 393.685 210.776 389.242C211.606 387.162 212.461 385.039 213.936 383.35C215.411 381.66 217.369 380.546 219.326 379.494C225.573 376.043 232.115 373.156 238.875 370.866C241.725 369.944 244.712 369.963 246.31 372.624C248.163 375.799 247.624 379.463 249.074 382.842Z" fill="#FFCECE"/>
<path d="M37.2938 419.983C38.6136 421.035 39.7722 422.279 41.1291 423.282C42.5642 424.277 44.0912 425.133 45.6894 425.838L51.7987 428.771C53.6918 429.754 55.6729 430.558 57.7159 431.173C60.3306 431.872 63.0754 431.94 65.7025 432.59C69.0174 433.407 72.0472 435.109 75.3125 436.093C78.5778 437.077 82.4008 437.238 85.127 435.189C86.8309 433.908 88.1197 431.792 90.2325 431.476C91.5957 431.296 92.9092 431.952 94.1236 432.59L110.023 440.939C112.166 442.065 114.434 443.316 115.556 445.463C116.677 447.611 115.921 450.872 113.561 451.429C112.738 451.524 111.91 451.571 111.082 451.572C110.264 451.671 109.372 452.154 109.261 452.977C109.256 453.488 109.391 453.991 109.651 454.431C110.363 456.065 110.574 458.021 109.744 459.605C108.914 461.19 106.875 462.174 105.245 461.462C105.524 463.857 102.916 465.534 100.592 466.172C94.7309 467.775 88.5163 466.791 82.5247 465.776C80.1702 465.38 77.7785 464.971 75.6347 463.919C74.6062 463.418 73.652 462.774 72.6111 462.31C69.7547 461.041 66.508 461.208 63.3852 461.264C48.9423 461.518 34.6233 458.844 20.4221 456.183C17.7888 455.687 15.0811 455.161 12.8319 453.707C8.49473 450.885 6.88377 445.092 7.59631 439.967C8.30886 434.843 10.9112 430.201 13.4701 425.695L16.785 419.859C17.2183 418.965 17.8249 418.166 18.5695 417.507C23.4457 413.788 33.1177 416.628 37.2938 419.983Z" fill="#A1616A"/>
<path opacity="0.04" d="M37.2938 419.983C38.6136 421.035 39.7722 422.279 41.1291 423.282C42.5642 424.277 44.0912 425.133 45.6894 425.838L51.7987 428.771C53.6918 429.754 55.6729 430.558 57.7159 431.173C60.3306 431.872 63.0754 431.94 65.7025 432.59C69.0174 433.407 72.0472 435.109 75.3125 436.093C78.5778 437.077 82.4008 437.238 85.127 435.189C86.8309 433.908 88.1197 431.792 90.2325 431.476C91.5957 431.296 92.9092 431.952 94.1236 432.59L110.023 440.939C112.166 442.065 114.434 443.316 115.556 445.463C116.677 447.611 115.921 450.872 113.561 451.429C112.738 451.524 111.91 451.571 111.082 451.572C110.264 451.671 109.372 452.154 109.261 452.977C109.256 453.488 109.391 453.991 109.651 454.431C110.363 456.065 110.574 458.021 109.744 459.605C108.914 461.19 106.875 462.174 105.245 461.462C105.524 463.857 102.916 465.534 100.592 466.172C94.7309 467.775 88.5163 466.791 82.5247 465.776C80.1702 465.38 77.7785 464.971 75.6347 463.919C74.6062 463.418 73.652 462.774 72.6111 462.31C69.7547 461.041 66.508 461.208 63.3852 461.264C48.9423 461.518 34.6233 458.844 20.4221 456.183C17.7888 455.687 15.0811 455.161 12.8319 453.707C8.49473 450.885 6.88377 445.092 7.59631 439.967C8.30886 434.843 10.9112 430.201 13.4701 425.695L16.785 419.859C17.2183 418.965 17.8249 418.166 18.5695 417.507C23.4457 413.788 33.1177 416.628 37.2938 419.983Z" fill="black"/>
<path d="M226.433 430.677C223.205 432.2 219.5 432.349 216.129 433.518C212.759 434.688 209.896 436.792 206.804 438.507C198.75 443 189.456 444.696 180.329 446.311C174.796 447.301 169.176 448.292 163.6 448.056C156.053 447.735 148.803 445.222 141.492 443.328C134.181 441.434 126.38 440.159 119.137 442.288C115.355 443.439 111.897 445.463 109.044 448.197C106.191 450.932 104.024 454.299 102.718 458.027C101.199 462.477 100.989 467.273 101.28 471.965C102.804 473.085 104.936 471.531 105.766 469.829C106.596 468.128 107.049 466.042 108.66 465.052C111.454 465.998 112.135 469.718 114.44 471.556C115.878 472.707 117.799 473.011 119.626 473.271L129.044 474.607C131.312 474.929 133.945 475.146 135.587 473.549C136.387 472.775 136.827 471.692 137.558 470.863C139.057 469.204 141.56 468.92 143.791 469.143C150.755 469.836 157.286 474.347 164.201 473.277C166.58 472.912 168.792 471.897 171.06 471.098C184.499 466.357 199.431 469.242 213.416 466.525C218.75 465.491 223.887 463.659 228.961 461.728C231.719 460.682 234.507 459.587 236.861 457.817C239.092 456.103 240.851 453.853 241.974 451.275C243.096 448.698 243.546 445.878 243.28 443.08C242.762 438.816 240.632 434.911 237.326 432.163C236.235 431.234 234.804 429.458 233.497 428.876C231 427.781 228.552 429.681 226.433 430.677Z" fill="#A1616A"/>
<g opacity="0.1">
<path opacity="0.1" d="M208.329 351.612C207.294 350.696 207.04 349.304 206.148 348.289C204.289 346.141 200.534 346.432 197.473 346.865C192.138 347.614 185.701 347.787 182.392 344.08C180.961 342.483 180.329 340.367 178.582 339.036C174.505 335.942 167.491 339.11 162.999 336.492C159.076 334.209 159.331 328.911 156.059 325.971C152.788 323.031 147.118 323.415 142.676 324.882C141.924 325.227 141.081 325.322 140.272 325.154C138.865 324.659 138.964 322.914 139.311 321.626C141.003 315.406 142.725 309.124 146.015 303.406C147.211 301.32 148.624 299.309 149.392 297.068C150.737 293.144 150.049 288.707 151.815 284.993C149.919 286.231 148.097 287.58 146.926 289.326C144.287 293.256 145.309 298.256 143.828 302.62C143.06 304.86 141.647 306.872 140.451 308.957C137.161 314.676 135.439 320.958 133.747 327.178C133.4 328.465 133.301 330.211 134.708 330.706C135.517 330.874 136.36 330.778 137.112 330.433C141.554 328.967 147.199 328.546 150.495 331.523C153.791 334.5 153.512 339.779 157.435 342.044C161.927 344.662 168.941 341.499 173.018 344.588C174.765 345.912 175.397 348.035 176.828 349.632C180.162 353.345 186.574 353.166 191.909 352.417C194.97 351.984 198.725 351.693 200.584 353.84C201.476 354.855 201.73 356.248 202.765 357.164C204.623 358.823 208.025 357.981 209.84 356.279C211.004 355.068 212.001 353.707 212.802 352.231C211.191 352.72 209.475 352.646 208.329 351.612Z" fill="black"/>
<path opacity="0.1" d="M219.618 344.804C219.219 345.318 218.848 345.853 218.509 346.407C220.888 344.711 223.41 343.127 225.188 340.967C225.649 340.408 226.064 339.812 226.427 339.185C223.955 340.955 221.377 342.582 219.618 344.804Z" fill="black"/>
</g>
<path d="M344.796 467.36L346.655 644.986L355.329 643.748L353.47 467.36H344.796Z" fill="#3F3D56"/>
<path d="M396.842 499.543L398.701 677.169L407.375 675.931L405.517 499.543H396.842Z" fill="#3F3D56"/>
<path d="M558.887 589.272L558.849 585.862V583.832L558.521 552.59L558.007 503.746L557.92 499.531H549.246L549.289 503.591L549.562 529.752L549.679 541.078L549.778 550.25L549.94 566.106L550.039 575.458V576.448L550.169 588.74L550.28 599.577L550.987 598.797C552.123 597.53 553.234 596.243 554.32 594.935L558.887 589.272Z" fill="#3F3D56"/>
<path d="M387.238 528.322L382.282 535.724L387.238 569.449L429.371 580.966H497.528L538.421 583.436L557.902 570.117L554.531 547.242L539.66 528.322H387.238Z" fill="#FEE7E7"/>
<path d="M382.282 535.724L379.803 556.284C379.803 556.284 366.792 596.594 471.504 594.124C576.217 591.655 558.248 583.43 558.248 583.43L557.629 559.577C557.629 559.577 561.278 570.866 508.061 569.337C454.843 567.809 405.207 562.87 405.207 562.87C405.207 562.87 386.619 566.156 382.282 535.724Z" fill="#3F3D56"/>
<path d="M469.522 351.439C463.549 354.156 459.025 359.423 455.996 365.247C452.966 371.071 451.262 377.464 449.583 383.814C447.811 390.511 446.032 397.226 445.115 404.089C443.48 416.294 444.707 429.124 450.32 440.085C455.934 451.046 466.306 459.89 478.45 462C483.14 462.823 487.961 462.656 492.701 462.167C501.268 461.261 509.708 459.403 517.863 456.628C526.382 453.75 535.249 449.319 539.041 441.156C541.24 436.421 541.426 431.024 541.321 425.813C541.029 411.61 538.881 397.505 534.933 383.857C533.787 379.896 532.454 375.904 530.026 372.568C527.597 369.233 524.276 366.788 520.886 364.523C506.394 354.775 487.347 343.344 469.522 351.439Z" fill="#FBBEBE"/>
<path opacity="0.05" d="M469.522 351.439C463.549 354.156 459.025 359.423 455.996 365.247C452.966 371.071 451.262 377.464 449.583 383.814C447.811 390.511 446.032 397.226 445.115 404.089C443.48 416.294 444.707 429.124 450.32 440.085C455.934 451.046 466.306 459.89 478.45 462C483.14 462.823 487.961 462.656 492.701 462.167C501.268 461.261 509.708 459.403 517.863 456.628C526.382 453.75 535.249 449.319 539.041 441.156C541.24 436.421 541.426 431.024 541.321 425.813C541.029 411.61 538.881 397.505 534.933 383.857C533.787 379.896 532.454 375.904 530.026 372.568C527.597 369.233 524.276 366.788 520.886 364.523C506.394 354.775 487.347 343.344 469.522 351.439Z" fill="black"/>
<path d="M462.811 429.341C464.54 431.714 466.631 433.803 469.007 435.53C474.906 439.602 482.477 440.153 489.64 440.376C495.39 440.549 501.982 440.221 505.589 435.74C507.212 433.723 507.943 431.148 508.6 428.641C512.653 413.25 515.532 397.573 517.212 381.747L533.619 381.802C540.72 412.172 540.137 443.743 539.518 474.929L538.619 520.406L528.049 519.286C502.949 516.631 477.812 513.976 452.575 513.518C437.789 513.246 422.998 513.734 408.262 514.979L431.28 446.614C434.266 437.727 437.284 428.722 437.984 419.382C438.994 405.835 435.189 391.532 440.462 378.999C440.884 377.99 441.416 376.944 442.377 376.418C443.337 375.892 444.552 376.022 445.654 376.164C447.736 376.443 454.1 376.164 455.611 377.495C457.842 379.426 456.367 379.717 455.581 382.83C454.174 388.4 452.842 393.556 452.86 399.361C452.879 409.901 456.151 421.029 462.811 429.341Z" fill="#FFCECE"/>
<path d="M558.887 589.272C561.65 585.608 564.254 581.814 566.7 577.89C565.461 575.242 564.097 572.655 563.013 569.95C561.353 565.803 560.398 561.409 559.457 557.046C559.134 555.56 558.814 554.075 558.496 552.59C555.027 536.43 551.767 520.041 551.092 503.659C551.03 502.297 550.991 500.936 550.974 499.574C550.974 499.376 550.974 499.184 550.974 498.955C550.974 497.464 550.974 495.972 550.974 494.487C551.049 490.773 551.284 487.029 551.712 483.303C551.792 482.573 551.885 481.842 551.984 481.112C551.984 480.951 552.022 480.797 552.046 480.636L594.179 479.101L597.723 478.971C600.158 478.884 602.736 478.748 604.743 477.368C608.12 475.053 608.517 470.306 608.461 466.227C608.256 455.919 607.086 445.652 604.966 435.561C603.368 427.973 601.088 420.218 595.97 414.388C591.769 409.598 585.684 406.113 583.497 400.153C582.686 397.937 582.481 395.505 581.428 393.388C580.374 391.272 578.633 389.718 576.991 388.084C571.213 382.365 566.419 375.732 562.803 368.453C560.293 363.402 557.573 357.832 554.295 354.342C554.134 354.162 553.973 353.995 553.806 353.834C551.018 351.08 547.827 349.873 544.047 351.748C543.368 352.089 542.721 352.491 542.114 352.949C540.767 353.977 539.535 355.147 538.44 356.44C534.622 360.825 531.272 365.595 528.446 370.675C526.458 374.251 524.751 377.975 523.34 381.815C522.227 384.848 521.306 387.949 520.583 391.098C520.05 393.432 519.629 395.79 519.294 398.154C518.055 407.042 518.055 416.102 518.228 425.101C518.414 433.37 518.78 441.657 519.53 449.895C519.715 451.887 519.922 453.878 520.149 455.867C520.604 459.799 521.165 463.719 521.835 467.626C522.101 469.118 522.374 470.609 522.677 472.095C522.752 472.491 522.832 472.887 522.913 473.277L522.95 473.444C523.768 476.897 524.403 480.39 524.852 483.91C524.902 484.351 524.939 484.791 524.964 485.228C525.068 487.251 525.051 489.278 524.914 491.299C524.771 493.688 524.548 496.071 524.437 498.46C524.437 498.881 524.437 499.296 524.394 499.698C524.363 500.905 524.394 502.112 524.394 503.319C524.519 506.206 524.863 509.08 525.422 511.915C526.467 517.189 528.272 522.284 530.782 527.041C531.017 527.487 531.259 527.926 531.5 528.359C534.642 533.967 538.607 539.11 541.513 544.847C544.02 550.01 545.892 555.457 547.089 561.069C547.503 562.921 547.895 564.778 548.267 566.639C548.843 569.61 549.357 572.605 549.884 575.601C549.933 575.898 549.989 576.219 550.045 576.492C550.745 580.465 551.482 584.42 552.43 588.3C552.982 590.559 553.601 592.788 554.326 594.978L558.887 589.272Z" fill="#464353"/>
<path d="M550.609 540.49C550.609 541.047 550.572 541.604 550.547 542.167C550.436 544.883 550.186 547.591 549.797 550.281C549.284 553.953 548.384 557.56 547.114 561.044C546.272 563.334 545.201 565.534 543.917 567.61C542.778 569.454 541.445 571.17 539.939 572.729C536.222 576.591 530.868 577.822 525.688 579.45C523.305 580.139 521.002 581.079 518.817 582.254C518.427 582.47 518.043 582.706 517.671 582.953L511.19 587.242C509.17 588.573 507.107 589.953 505.719 591.927C505.491 592.263 505.284 592.612 505.099 592.973C504.222 594.791 503.581 596.712 503.191 598.692C499.82 612.716 496.443 626.753 494.132 640.988C493.977 641.929 493.828 642.876 493.667 643.823L493.612 644.12C493.584 644.049 493.551 643.981 493.513 643.915C476.932 653.929 459.738 662.965 442.024 670.2L438.176 638.017C437.775 635.401 437.642 632.751 437.779 630.108C438.145 625.942 439.843 621.994 440.301 617.841C440.735 613.775 439.966 609.672 438.089 606.038C437.358 604.627 436.441 603.241 436.274 601.663C436.106 600.084 437.017 598.642 438.603 598.481C439.843 597.107 439.942 595.232 439.576 593.375C439.382 592.406 439.091 591.459 438.709 590.547C437.655 587.96 436.323 585.144 437.228 582.501C437.467 582.022 437.574 581.488 437.538 580.954C437.544 580.921 437.544 580.888 437.538 580.855C437.327 580.162 436.503 579.859 436.075 579.271C435.27 578.175 436.075 576.684 436.571 575.421C437.053 574.064 437.333 572.644 437.401 571.206C437.47 570.408 437.519 569.603 437.606 568.811C437.727 567.739 437.919 566.676 438.182 565.63C439.687 559.701 443.307 554.525 448.362 551.073C450.772 549.452 453.455 548.27 455.915 546.741C458.435 545.044 460.84 543.183 463.115 541.171C468.571 536.632 474.245 532.353 480.135 528.335C486.469 524.014 493.03 520.035 499.789 516.415C501.235 515.635 502.681 514.875 504.126 514.137C505.7 513.312 507.284 512.53 508.879 511.791C513.984 509.359 519.777 510.269 525.422 511.89C527.789 512.565 530.125 513.369 532.38 514.1C534.583 514.815 536.701 515.765 538.7 516.934C543.7 519.868 547.833 524.2 549.549 529.671C549.552 529.707 549.552 529.742 549.549 529.777C550.64 533.205 550.708 536.882 550.609 540.49Z" fill="#F86D70"/>
<path opacity="0.1" d="M550.609 540.49C550.609 541.047 550.572 541.604 550.547 542.167C550.436 544.883 550.186 547.591 549.797 550.281C549.284 553.953 548.384 557.56 547.114 561.044C546.272 563.334 545.201 565.534 543.917 567.61C542.778 569.454 541.445 571.17 539.939 572.729C536.222 576.591 530.868 577.822 525.688 579.45C523.305 580.139 521.002 581.079 518.817 582.254C518.427 582.47 518.043 582.706 517.671 582.953L511.19 587.242C509.17 588.573 507.107 589.953 505.719 591.927C505.491 592.263 505.284 592.612 505.099 592.973C504.222 594.791 503.581 596.712 503.191 598.692C499.82 612.716 496.443 626.753 494.132 640.988C493.977 641.929 493.828 642.876 493.667 643.823L493.612 644.12C493.584 644.049 493.551 643.981 493.513 643.915C476.932 653.929 459.738 662.965 442.024 670.2L438.176 638.017C437.775 635.401 437.642 632.751 437.779 630.108C438.145 625.942 439.843 621.994 440.301 617.841C440.735 613.775 439.966 609.672 438.089 606.038C437.358 604.627 436.441 603.241 436.274 601.663C436.106 600.084 437.017 598.642 438.603 598.481C439.843 597.107 439.942 595.232 439.576 593.375C439.382 592.406 439.091 591.459 438.709 590.547C437.655 587.96 436.323 585.144 437.228 582.501C437.467 582.022 437.574 581.488 437.538 580.954C437.544 580.921 437.544 580.888 437.538 580.855C437.327 580.162 436.503 579.859 436.075 579.271C435.27 578.175 436.075 576.684 436.571 575.421C437.053 574.064 437.333 572.644 437.401 571.206C437.47 570.408 437.519 569.603 437.606 568.811C437.727 567.739 437.919 566.676 438.182 565.63C439.687 559.701 443.307 554.525 448.362 551.073C450.772 549.452 453.455 548.27 455.915 546.741C458.435 545.044 460.84 543.183 463.115 541.171C468.571 536.632 474.245 532.353 480.135 528.335C486.469 524.014 493.03 520.035 499.789 516.415C501.235 515.635 502.681 514.875 504.126 514.137C505.7 513.312 507.284 512.53 508.879 511.791C513.984 509.359 519.777 510.269 525.422 511.89C527.789 512.565 530.125 513.369 532.38 514.1C534.583 514.815 536.701 515.765 538.7 516.934C543.7 519.868 547.833 524.2 549.549 529.671C549.552 529.707 549.552 529.742 549.549 529.777C550.64 533.205 550.708 536.882 550.609 540.49Z" fill="black"/>
<path d="M491.778 437.974C491.715 437.831 491.624 437.701 491.51 437.593C491.396 437.486 491.261 437.402 491.114 437.348C490.966 437.293 490.81 437.269 490.653 437.277C490.496 437.285 490.342 437.324 490.201 437.392C490.06 437.461 489.934 437.557 489.831 437.675C489.728 437.794 489.65 437.931 489.601 438.081C489.553 438.23 489.535 438.387 489.55 438.543C489.564 438.7 489.609 438.851 489.683 438.989L489.064 439.293L507.54 477.12L510.88 475.492L492.403 437.64L491.778 437.974Z" fill="#3F3D56"/>
<path d="M514.876 398.352C536.777 398.352 554.531 380.618 554.531 358.742C554.531 336.866 536.777 319.132 514.876 319.132C492.976 319.132 475.222 336.866 475.222 358.742C475.222 380.618 492.976 398.352 514.876 398.352Z" fill="#FBBEBE"/>
<path d="M567.214 334.221C567.029 331.072 566.56 327.947 565.814 324.882C563.484 314.874 559.227 305.021 551.898 297.836C551.446 296.079 550.906 294.346 550.28 292.643C550.269 292.601 550.254 292.559 550.237 292.519C548.051 286.521 544.89 280.923 540.881 275.951C538.558 273.067 535.546 270.22 531.841 270.109C530.8 270.071 529.697 270.251 528.743 269.774C528.041 269.321 527.451 268.716 527.014 268.004C525.18 265.688 522.746 263.917 519.977 262.882C517.207 261.847 514.208 261.587 511.301 262.131L510.917 262.211C510.7 262.255 510.483 262.304 510.298 262.36C510.112 262.416 509.777 262.508 509.517 262.589C509.802 263.059 510.081 263.536 510.353 264.019C511.089 265.326 511.77 266.663 512.398 268.029C512.918 269.168 513.4 270.325 513.842 271.501C507.497 272.225 502.329 276.725 497.608 281.007L486.492 291.083C486.472 291.1 486.454 291.119 486.437 291.139L486.114 291.448C486.034 291.529 485.953 291.609 485.879 291.696C485.849 291.722 485.822 291.751 485.798 291.783C485.706 291.882 485.619 291.987 485.532 292.092C485.377 292.287 485.239 292.494 485.117 292.711C485.056 292.804 485.002 292.901 484.956 293.002C484.939 293.032 484.924 293.063 484.912 293.095C484.872 293.179 484.837 293.266 484.807 293.355C484.804 293.367 484.804 293.38 484.807 293.392C484.79 293.443 484.775 293.494 484.764 293.547C484.637 293.982 484.675 294.449 484.869 294.859L492.199 294.939H493.06C493.097 295.917 493.128 296.901 493.166 297.879C492.002 298.748 490.886 299.678 489.82 300.664C488.657 301.739 487.567 302.888 486.554 304.105C479.943 312.083 476.492 322.388 476.145 332.76C476.145 333.082 476.145 333.379 476.145 333.713C476.145 334.66 476.145 335.607 476.145 336.548C476.145 337.167 476.201 337.786 476.25 338.405C476.254 339.211 476.467 340.002 476.87 340.701C476.923 340.779 476.981 340.853 477.043 340.924C477.415 341.327 477.861 341.655 478.357 341.889L478.89 342.149C479.156 342.279 479.41 342.403 479.658 342.545C481.994 343.864 483.376 346.407 485.501 348.041C485.625 348.134 485.749 348.227 485.873 348.307L486.152 348.493L486.325 348.604L486.561 348.741C486.715 348.834 486.874 348.918 487.038 348.994L487.335 349.143H487.385C487.632 349.254 487.88 349.359 488.134 349.452L488.488 349.576L488.593 349.613C488.692 349.644 488.797 349.681 488.903 349.706C489.113 349.768 489.32 349.824 489.522 349.873L490.142 350.009C490.384 350.053 490.631 350.096 490.879 350.127L491.245 350.176L491.617 350.214C492.207 350.267 492.802 350.298 493.401 350.306C495.281 350.295 497.158 350.165 499.021 349.916L514.833 348.06C518.421 347.645 522.082 347.23 525.62 347.961C528.619 348.58 531.383 350.003 534.295 351.012C534.951 351.241 535.608 351.451 536.271 351.631C536.513 351.699 536.761 351.773 537.009 351.835L537.349 351.922L538.142 352.114C538.427 352.182 538.712 352.25 538.997 352.305C539.4 352.392 539.797 352.466 540.2 352.541C540.472 352.596 540.751 352.64 541.03 352.689H541.086L541.879 352.813H542.071L542.659 352.893C542.944 352.937 543.229 352.974 543.521 353.005C544.153 353.083 544.785 353.151 545.417 353.209C546.439 353.308 547.467 353.382 548.515 353.444L549.543 353.506L550.572 353.556L553.67 353.692H553.806H554.24C555.528 353.781 556.822 353.715 558.094 353.494C558.317 353.45 558.534 353.401 558.75 353.339C558.967 353.277 559.147 353.215 559.37 353.141C561.693 352.25 563.391 350.201 564.568 348.01C564.816 347.546 565.046 347.082 565.256 346.605C565.467 346.129 565.659 345.646 565.832 345.163C566.049 344.544 566.235 343.956 566.396 343.338C566.446 343.17 566.489 343.003 566.526 342.83C566.564 342.657 566.65 342.316 566.7 342.056C566.855 341.345 566.972 340.627 567.059 339.903C567.059 339.674 567.115 339.438 567.14 339.209C567.196 338.59 567.239 338.015 567.264 337.408C567.264 336.95 567.264 336.486 567.264 336.022C567.257 335.521 567.214 334.858 567.214 334.221ZM551.328 297.272C550.826 296.802 550.311 296.35 549.791 295.923C550.37 296.288 550.887 296.744 551.321 297.272H551.328Z" fill="#464353"/>
<path d="M438.771 356.564C434.105 355.988 429.477 353.946 424.873 354.948C421.992 355.567 419.514 357.356 417.209 359.194C408.631 366.061 401.338 374.39 395.665 383.795C394.703 385.202 394.027 386.783 393.676 388.45C393.379 390.381 393.905 392.342 394.531 394.193C398.769 406.701 407.834 417.148 411.961 429.693C416.298 442.888 414.792 457.309 411.595 470.826C407.632 487.513 401.191 503.513 392.487 518.296C391.305 520.494 389.824 522.519 388.087 524.312C385.832 526.478 382.802 528.025 381.464 530.86C380.844 532.098 380.665 533.509 380.225 534.833C378.985 538.547 375.987 541.728 375.695 545.645C375.478 548.635 376.897 551.463 377.759 554.31C379.211 559.201 379.057 564.428 377.319 569.226C374.177 577.828 365.961 585.651 368.347 594.496C373.669 592.967 379.568 590.98 382.077 586.048C382.963 584.302 383.403 582.223 384.896 580.948C387.877 578.416 392.951 580.706 396.117 578.379C398.509 576.609 398.596 572.982 397.53 570.197C396.464 567.412 394.63 564.961 393.812 562.096C392.387 556.928 394.668 551.463 394.246 546.122C394.048 543.646 393.286 541.276 393.23 538.813C393.125 534.029 395.777 529.529 399.302 526.28C402.828 523.031 407.183 520.877 411.471 518.754L427.68 510.708C433.56 507.799 440.004 504.253 441.931 497.99C442.662 495.644 442.668 493.144 442.705 490.693C443.257 453.243 452.65 416.548 461.987 380.274C463.437 374.654 464.912 369.01 467.068 363.613C469.224 358.216 473.444 353.884 475.594 348.871C463.121 347.41 451.727 358.185 438.771 356.564Z" fill="#464353"/>
<path d="M528.123 591.506C529.555 600.171 530.428 609.021 531.11 617.828C519.957 627.062 507.949 635.096 495.749 642.547C495.055 642.975 494.355 643.395 493.655 643.785L493.599 644.082C493.571 644.012 493.538 643.944 493.5 643.878C492.554 641.835 490.898 640.204 488.841 639.286C484.268 629.693 479.7 620.1 475.135 610.507C472.657 605.326 470.178 600.097 468.939 594.508C468.939 594.39 468.883 594.267 468.865 594.149C467.923 589.817 467.706 585.317 467.08 580.929C466.763 578.416 466.197 575.941 465.389 573.54C464.645 571.404 463.623 569.331 462.718 567.245C461.603 564.671 460.667 562.065 460.624 559.286C460.624 558.401 460.68 557.429 460.246 556.687C459.782 556.047 459.21 555.494 458.555 555.053C457.737 554.328 457.117 553.408 456.752 552.379C456.388 551.349 456.292 550.244 456.473 549.167C452.755 549.359 450.661 553.351 449.168 556.736C447.81 560.047 446.027 563.168 443.864 566.02C442.287 568.057 440.282 569.724 437.99 570.903C437.786 571.002 437.581 571.101 437.37 571.188C432.197 573.465 426.156 572.661 420.548 571.633C415.647 570.736 410.579 569.622 406.638 566.577L406.217 566.243C405.05 565.274 404.01 564.164 403.119 562.938C399.816 558.432 398.354 552.497 397.542 546.846C397.468 546.314 397.394 545.782 397.326 545.249C396.762 541.257 396.607 537.217 396.861 533.193C396.935 532.203 397.041 531.213 397.171 530.228C397.257 529.61 397.35 528.941 397.456 528.297C397.453 528.279 397.453 528.26 397.456 528.242C397.617 527.221 397.79 526.193 397.964 525.147C398.583 521.638 399.203 518.036 401.062 515.016C402.285 513.137 403.828 511.486 405.622 510.139C406.291 509.613 406.979 509.111 407.673 508.629C408.801 507.849 409.959 507.106 411.137 506.407C414.098 504.636 417.208 503.124 420.431 501.889C421.199 501.592 421.98 501.313 422.76 501.047C425.795 499.969 429.061 499.71 432.228 500.298C435.034 500.704 437.87 500.869 440.704 500.793C447.972 500.651 455.271 499.265 462.526 498.367C472.601 497.129 483.425 496.981 492.211 502.081C492.633 502.322 493.042 502.576 493.451 502.842C497.788 505.676 501.282 509.65 504.102 514.087C504.721 515.022 505.26 515.981 505.793 516.953C507.021 519.183 508.132 521.476 509.12 523.823C509.705 524.975 510.021 526.245 510.043 527.536C510.029 527.782 509.996 528.026 509.944 528.267C509.777 529.145 509.442 529.999 509.325 530.891C508.934 534.264 511.803 537.08 512.875 540.292C513.569 542.384 513.495 544.624 513.885 546.828C514.449 549.922 515.967 552.707 517.33 555.492C519.484 559.975 521.327 564.601 522.844 569.337C523.923 572.636 524.846 575.984 525.657 579.363C525.922 580.449 526.172 581.536 526.407 582.625C527.083 585.621 527.634 588.554 528.123 591.506Z" fill="#F86D70"/>
<path d="M594.185 499.853V504.185L593.386 504.173L592.494 504.16L582.531 504.036L557.982 503.715L551.092 503.628L549.308 503.603L538.966 503.473L524.393 503.281L493.475 502.879L439.824 502.186L420.461 501.938L412.692 501.839L405.541 501.746L401.087 501.685L396.867 501.629L365.583 501.227L356.909 501.115L355.019 501.09L353.792 497.928L344.876 474.96L343.247 470.764L344.486 465.813L350.062 469.526L353.495 469.953L410.009 476.972L420.616 478.29L443.108 481.087L465.141 483.823L473.778 484.894L524.889 491.244L539.171 493.02L550.993 494.487L593.027 499.71L594.185 499.853Z" fill="#3F3D56"/>
<path d="M344.486 465.813L355.639 494.901L594.185 499.853V468.288L344.486 465.813Z" fill="#504F60"/>
<path d="M356.878 497.996L358.737 675.622L367.411 674.384L365.552 497.996H356.878Z" fill="#3F3D56"/>
<path d="M593.386 504.166H592.494C591.049 515.241 588.659 526.171 585.35 536.838L582.531 504.036L582.413 502.638L592.835 501.437L593.182 501.4L593.386 504.166Z" fill="#3F3D56"/>
<path d="M559.488 483.142L468.716 484.999L440.524 475.715L516.115 471.383L559.488 483.142Z" fill="white"/>
<path d="M445.624 447.048C444.661 447.416 443.808 448.023 443.145 448.811C442.626 449.665 442.311 450.627 442.222 451.621L440.698 460.701C440.465 461.531 440.506 462.414 440.815 463.22C441.212 463.981 442.364 464.377 442.941 463.746C442.866 465.522 443.021 467.416 444.056 468.864C445.091 470.312 447.259 471.073 448.722 470.065C448.951 470.438 449.259 470.757 449.624 470.999C449.989 471.242 450.402 471.402 450.835 471.47C451.268 471.537 451.711 471.509 452.132 471.388C452.554 471.267 452.944 471.057 453.276 470.77C452.396 471.067 452.334 472.41 452.96 473.091C453.66 473.709 454.554 474.065 455.488 474.1C466.376 475.633 477.476 474.238 487.645 470.058C488.605 469.662 486.077 457.835 485.823 456.622C485.204 453.769 484.894 450.284 482.484 448.366C476.721 443.774 466.485 442.87 459.465 443.415C454.669 443.777 449.979 445.008 445.624 447.048Z" fill="#FBBEBE"/>
<path opacity="0.1" d="M537.981 448.422C515.57 448.849 492.695 449.214 471.306 442.511C473.349 450.419 473.208 458.733 470.897 466.568L575.684 475.233C580.127 475.598 598.547 477.677 602.878 476.631C607.209 475.585 566.539 462.205 568.181 458.064C572.698 446.658 587.828 439.973 576.929 439.546C563.174 439.002 551.842 448.162 537.981 448.422Z" fill="black"/>
<path d="M538.601 449.659C516.19 450.086 493.314 450.452 471.926 443.749C473.969 451.657 473.827 459.971 471.517 467.806L576.304 476.47C580.746 476.835 599.167 478.946 603.498 477.869C607.829 476.792 606.813 471.488 608.455 467.348C612.972 455.941 588.448 441.211 577.549 440.784C563.794 440.24 552.461 449.399 538.601 449.659Z" fill="#464353"/>
<path d="M502.968 451.38C503.93 451.748 504.783 452.355 505.446 453.144C505.964 453.998 506.282 454.959 506.375 455.954L507.9 465.033C508.129 465.864 508.088 466.746 507.782 467.552C507.385 468.313 506.227 468.709 505.657 468.078C505.725 469.854 505.576 471.748 504.541 473.196C503.507 474.645 501.338 475.406 499.87 474.397C499.64 474.77 499.332 475.089 498.968 475.332C498.603 475.574 498.189 475.735 497.756 475.802C497.323 475.869 496.88 475.841 496.459 475.72C496.037 475.6 495.647 475.389 495.316 475.103C496.195 475.4 496.263 476.743 495.638 477.423C494.935 478.041 494.039 478.398 493.104 478.432C482.217 479.965 471.119 478.57 460.952 474.391C459.992 473.995 462.514 462.167 462.774 460.954C463.394 458.101 463.703 454.617 466.114 452.698C471.87 448.106 482.112 447.202 489.132 447.747C493.926 448.11 498.614 449.341 502.968 451.38Z" fill="#FBBEBE"/>
<path d="M354.883 431.668C352.826 434.317 350.763 437.021 349.437 440.11C346.902 446.002 347.274 452.673 347.696 459.073C347.813 460.93 347.962 462.823 348.935 464.365C349.776 465.529 350.885 466.473 352.169 467.119C357.535 470.164 363.818 471.073 369.952 471.754C379.345 472.794 388.771 473.427 398.23 473.654C421.664 474.224 445.456 472.311 468.282 477.615C465.457 473.326 465.463 467.651 467.043 462.762C468.623 457.872 471.665 453.614 474.646 449.424C464.199 446.119 452.997 451.281 442.055 450.767C430.821 450.241 420.424 443.755 409.179 443.761C406.762 443.761 404.302 444.064 401.954 443.483C399.606 442.901 397.332 441.131 397.115 438.723C400.114 439.398 402.958 436.836 404.197 434.026C405.436 431.216 405.659 428.041 406.861 425.213C409.854 418.176 417.94 414.914 422.971 409.121C423.764 408.205 424.514 407.122 424.489 405.909C424.371 404.881 423.938 403.915 423.25 403.142C419.067 397.572 412.766 394.478 407.53 390.145C405.709 388.635 402.035 382.941 399.99 382.415C396.198 381.444 392.982 386.915 390.516 389.582C378.066 403.095 366.189 417.123 354.883 431.668Z" fill="#464353"/>
<path opacity="0.07" d="M479.472 430.096C481.043 431.259 482.439 432.641 483.617 434.199C484.205 434.982 484.623 435.877 484.846 436.83C485.069 437.782 485.092 438.771 484.912 439.732C484.72 437.938 485.12 436.131 486.052 434.586C486.984 433.04 488.396 431.842 490.074 431.173L479.472 430.096Z" fill="black"/>
<g opacity="0.1">
<path opacity="0.1" d="M513.835 267.794C513.107 265.859 512.267 263.969 511.32 262.131C510.708 262.248 510.104 262.403 509.511 262.595C510.574 264.359 511.532 266.184 512.379 268.06C512.857 267.936 513.34 267.85 513.835 267.794Z" fill="black"/>
<path opacity="0.1" d="M549.785 292.197C549.952 292.333 550.113 292.488 550.274 292.631C550.262 292.59 550.248 292.551 550.231 292.513C550.09 292.41 549.942 292.305 549.785 292.197Z" fill="black"/>
<path opacity="0.1" d="M492.187 294.92C492.509 294.667 492.806 294.401 493.153 294.153L493.054 291.213L486.437 291.145C485.365 292.129 484.225 293.54 484.857 294.859L492.187 294.92Z" fill="black"/>
<path opacity="0.1" d="M564.531 344.408C563.354 346.599 561.656 348.654 559.333 349.539C557.542 350.22 555.572 350.158 553.657 350.071C547.127 349.805 540.484 349.514 534.313 347.354C531.426 346.339 528.662 344.922 525.639 344.297C522.101 343.566 518.439 343.981 514.852 344.402L499.039 346.259C494.374 346.803 489.175 347.212 485.451 344.352C483.32 342.719 481.945 340.175 479.609 338.863C478.623 338.306 477.452 337.947 476.814 337.006C476.411 336.308 476.198 335.516 476.195 334.71C476.145 334.06 476.114 333.41 476.089 332.76C476.022 334.649 476.057 336.539 476.195 338.423C476.198 339.23 476.411 340.021 476.814 340.72C477.434 341.654 478.623 342.013 479.609 342.576C481.945 343.888 483.326 346.432 485.451 348.066C489.169 350.925 494.374 350.542 499.039 349.972L514.852 348.115C518.439 347.695 522.101 347.28 525.639 348.01C528.638 348.629 531.401 350.053 534.313 351.068C540.509 353.228 547.127 353.543 553.657 353.785C555.572 353.865 557.542 353.933 559.333 353.252C561.656 352.367 563.354 350.313 564.531 348.122C566.811 343.882 567.449 339.073 567.208 334.227C567.075 337.776 566.161 341.252 564.531 344.408Z" fill="black"/>
</g>
<path opacity="0.1" d="M513.656 271.773L522.33 279.819C522.33 279.819 514.895 276.725 513.656 271.773Z" fill="black"/>
</g>
<path d="M147.422 146.721C151.776 137.919 154.238 130.253 152.922 129.598C151.606 128.943 147.009 135.547 142.655 144.349C138.301 153.151 135.839 160.817 137.155 161.472C138.471 162.127 143.068 155.523 147.422 146.721Z" fill="#E0E0E0"/>
<path d="M368.29 256.745C372.644 247.943 375.448 240.447 374.554 240.002C373.66 239.557 369.405 246.331 365.051 255.133C360.697 263.935 357.893 271.431 358.787 271.876C359.681 272.321 363.936 265.546 368.29 256.745Z" fill="#E0E0E0"/>
<path d="M249.602 212.249L241.395 205.453L218.808 232.889L227.014 239.686L249.602 212.249Z" fill="#F55F44"/>
<path opacity="0.05" d="M230.73 241.875L242.387 244.624L250.506 209.987L238.85 207.238L230.73 241.875Z" fill="black"/>
<path d="M232.027 242.181L242.387 244.624L250.506 209.987L240.146 207.544L232.027 242.181Z" fill="#F55F44"/>
<path opacity="0.05" d="M268.117 186.927L249.845 177.833L234.077 209.707L252.35 218.8L268.117 186.927Z" fill="black"/>
<path d="M267.322 186.531L250.639 178.229L234.872 210.102L251.555 218.405L267.322 186.531Z" fill="#F55F44"/>
<path opacity="0.05" d="M264.145 184.95L253.022 179.415L237.255 211.288L248.377 216.824L264.145 184.95Z" fill="black"/>
<path d="M263.35 184.554L253.817 179.81L238.05 211.684L247.583 216.428L263.35 184.554Z" fill="#F55F44"/>
<path d="M262.066 287.357C262.883 287.357 263.545 286.692 263.545 285.873C263.545 285.054 262.883 284.39 262.066 284.39C261.25 284.39 260.588 285.054 260.588 285.873C260.588 286.692 261.25 287.357 262.066 287.357Z" fill="#DBDBDB"/>
<g opacity="0.5">
<path opacity="0.5" d="M146.372 244.343H144.856V252.961H146.372V244.343Z" fill="#47E6B1"/>
<path opacity="0.5" d="M149.91 249.412V247.891H141.318V249.412H149.91Z" fill="#47E6B1"/>
</g>
<g opacity="0.5">
<path opacity="0.5" d="M528.462 136.872H526.946V145.49H528.462V136.872Z" fill="#47E6B1"/>
<path opacity="0.5" d="M532 141.942V140.421H523.408V141.942H532Z" fill="#47E6B1"/>
</g>
<g opacity="0.5">
<path opacity="0.5" d="M155.47 29.9092H153.954V38.5271H155.47V29.9092Z" fill="#47E6B1"/>
<path opacity="0.5" d="M159.008 34.9785V33.4577H150.416V34.9785H159.008Z" fill="#47E6B1"/>
</g>
<g opacity="0.5">
<path opacity="0.5" d="M482.975 16.7289H481.459V25.3467H482.975V16.7289Z" fill="#47E6B1"/>
<path opacity="0.5" d="M486.513 21.7982V20.2774H477.921V21.7982H486.513Z" fill="#47E6B1"/>
</g>
<path opacity="0.5" d="M136.211 128.486C135.793 128.303 135.457 127.973 135.266 127.558C135.076 127.143 135.044 126.672 135.177 126.235C135.198 126.168 135.212 126.098 135.217 126.028C135.229 125.828 135.177 125.629 135.067 125.461C134.958 125.293 134.797 125.164 134.61 125.095C134.422 125.025 134.217 125.019 134.025 125.075C133.833 125.132 133.664 125.249 133.544 125.409C133.502 125.466 133.468 125.527 133.441 125.592C133.259 126.011 132.929 126.349 132.516 126.54C132.102 126.732 131.632 126.764 131.196 126.63C131.129 126.609 131.06 126.595 130.99 126.59C130.79 126.578 130.592 126.63 130.425 126.74C130.257 126.85 130.129 127.011 130.06 127.199C129.991 127.387 129.984 127.593 130.04 127.785C130.097 127.978 130.213 128.147 130.373 128.268C130.43 128.31 130.491 128.344 130.556 128.371C130.974 128.554 131.31 128.884 131.501 129.299C131.692 129.714 131.724 130.185 131.591 130.623C131.569 130.69 131.556 130.759 131.55 130.829C131.538 131.03 131.591 131.228 131.7 131.397C131.809 131.565 131.97 131.693 132.158 131.762C132.345 131.832 132.55 131.839 132.742 131.782C132.934 131.726 133.103 131.609 133.223 131.448C133.265 131.391 133.299 131.33 133.326 131.265C133.508 130.846 133.838 130.508 134.252 130.317C134.665 130.126 135.135 130.094 135.571 130.227C135.638 130.249 135.707 130.262 135.777 130.267C135.977 130.28 136.175 130.227 136.343 130.117C136.51 130.008 136.638 129.847 136.707 129.658C136.777 129.47 136.783 129.264 136.727 129.072C136.671 128.879 136.554 128.71 136.394 128.589C136.337 128.548 136.276 128.513 136.211 128.486Z" fill="#4D8AF0"/>
<path opacity="0.5" d="M223.142 28.6197C222.724 28.4372 222.388 28.1069 222.197 27.6918C222.006 27.2766 221.974 26.8056 222.107 26.3684C222.128 26.3014 222.142 26.232 222.147 26.1618C222.16 25.9615 222.107 25.7625 221.998 25.5945C221.888 25.4264 221.728 25.2981 221.54 25.2287C221.352 25.1592 221.147 25.1523 220.955 25.2088C220.763 25.2654 220.595 25.3825 220.474 25.5427C220.433 25.5996 220.398 25.6611 220.371 25.7261C220.189 26.1452 219.86 26.4826 219.446 26.674C219.032 26.8654 218.563 26.8974 218.127 26.7641C218.06 26.7425 217.991 26.7289 217.921 26.7236C217.721 26.7114 217.523 26.764 217.355 26.8737C217.188 26.9834 217.06 27.1443 216.99 27.3326C216.921 27.5209 216.914 27.7266 216.971 27.9191C217.027 28.1117 217.144 28.2809 217.303 28.4018C217.36 28.4433 217.422 28.478 217.486 28.5051C217.904 28.6876 218.24 29.0179 218.431 29.433C218.622 29.8482 218.654 30.3192 218.521 30.7564C218.5 30.8234 218.486 30.8928 218.481 30.963C218.469 31.1633 218.521 31.3623 218.63 31.5303C218.74 31.6984 218.9 31.8266 219.088 31.8961C219.276 31.9656 219.481 31.9725 219.673 31.916C219.865 31.8594 220.033 31.7423 220.154 31.5821C220.195 31.5252 220.23 31.4636 220.257 31.3987C220.439 30.9796 220.768 30.6422 221.182 30.4508C221.596 30.2594 222.066 30.2274 222.501 30.3607C222.568 30.3823 222.637 30.3959 222.707 30.4012C222.907 30.4134 223.105 30.3608 223.273 30.2511C223.441 30.1414 223.568 29.9804 223.638 29.7922C223.707 29.6039 223.714 29.3982 223.658 29.2056C223.601 29.0131 223.484 28.8439 223.325 28.723C223.268 28.6815 223.207 28.6468 223.142 28.6197Z" fill="#4D8AF0"/>
<path opacity="0.5" d="M329.278 287.664C328.86 287.481 328.524 287.151 328.333 286.736C328.142 286.32 328.11 285.849 328.243 285.412C328.265 285.345 328.278 285.276 328.283 285.206C328.296 285.005 328.243 284.806 328.134 284.638C328.024 284.47 327.864 284.342 327.676 284.272C327.488 284.203 327.283 284.196 327.091 284.253C326.899 284.309 326.731 284.426 326.61 284.586C326.569 284.643 326.534 284.705 326.507 284.77C326.325 285.189 325.996 285.526 325.582 285.718C325.168 285.909 324.699 285.941 324.263 285.808C324.196 285.786 324.127 285.773 324.057 285.767C323.857 285.755 323.659 285.808 323.491 285.918C323.324 286.027 323.196 286.188 323.126 286.376C323.057 286.565 323.05 286.77 323.107 286.963C323.163 287.156 323.28 287.325 323.44 287.446C323.496 287.487 323.558 287.522 323.622 287.549C324.04 287.731 324.377 288.062 324.567 288.477C324.758 288.892 324.79 289.363 324.657 289.8C324.636 289.867 324.622 289.937 324.617 290.007C324.605 290.207 324.657 290.406 324.767 290.574C324.876 290.742 325.036 290.87 325.224 290.94C325.412 291.009 325.617 291.016 325.809 290.96C326.001 290.903 326.169 290.786 326.29 290.626C326.331 290.569 326.366 290.508 326.393 290.443C326.575 290.023 326.904 289.686 327.318 289.495C327.732 289.303 328.202 289.271 328.638 289.405C328.704 289.426 328.773 289.44 328.844 289.445C329.043 289.457 329.242 289.405 329.409 289.295C329.577 289.185 329.705 289.024 329.774 288.836C329.843 288.648 329.85 288.442 329.794 288.249C329.737 288.057 329.62 287.888 329.461 287.767C329.404 287.725 329.343 287.691 329.278 287.664Z" fill="#4D8AF0"/>
<path opacity="0.5" d="M513.805 228.121C515.48 228.121 516.838 226.759 516.838 225.079C516.838 223.399 515.48 222.038 513.805 222.038C512.131 222.038 510.773 223.399 510.773 225.079C510.773 226.759 512.131 228.121 513.805 228.121Z" fill="#F55F44"/>
<path opacity="0.5" d="M447.091 247.384C448.766 247.384 450.124 246.023 450.124 244.343C450.124 242.663 448.766 241.301 447.091 241.301C445.416 241.301 444.059 242.663 444.059 244.343C444.059 246.023 445.416 247.384 447.091 247.384Z" fill="#4D8AF0"/>
<path opacity="0.5" d="M182.256 277.293C183.931 277.293 185.289 275.932 185.289 274.252C185.289 272.572 183.931 271.21 182.256 271.21C180.582 271.21 179.224 272.572 179.224 274.252C179.224 275.932 180.582 277.293 182.256 277.293Z" fill="#47E6B1"/>
<path opacity="0.5" d="M337.923 6.08322C339.597 6.08322 340.955 4.72145 340.955 3.04161C340.955 1.36178 339.597 0 337.923 0C336.248 0 334.89 1.36178 334.89 3.04161C334.89 4.72145 336.248 6.08322 337.923 6.08322Z" fill="#F55F44"/>
<path d="M233.556 181.229L221.426 199.479C221.426 199.479 225.469 218.236 314.927 217.729C404.384 217.222 411.46 199.479 411.46 199.479L394.781 175.146L343.735 140.168L233.556 181.229Z" fill="#403D4B"/>
<path d="M491.567 113.553L332.363 184.017L138.286 113.553L316.19 32.4438L403.52 72.8314L406.648 74.2812L491.567 113.553Z" fill="#3F3C4A"/>
<path d="M409.943 130.445L406.911 130.627L403.52 72.8314L406.648 74.2812L409.943 130.445Z" fill="#F5F5F5"/>
<path d="M409.691 148.025C417.786 148.025 424.348 143.486 424.348 137.886C424.348 132.287 417.786 127.748 409.691 127.748C401.596 127.748 395.034 132.287 395.034 137.886C395.034 143.486 401.596 148.025 409.691 148.025Z" fill="#F5F5F5"/>
<path d="M153.316 128.801L136.761 162.269L358.411 272.577L374.967 239.109L153.316 128.801Z" fill="url(#paint0_linear)"/>
<path opacity="0.15" d="M233.556 181.229L221.426 199.479C221.426 199.479 225.469 218.236 314.927 217.729C404.384 217.222 411.46 199.479 411.46 199.479L394.781 175.146L343.735 140.168L233.556 181.229Z" fill="#050505"/>
<path opacity="0.15" d="M491.567 113.553L332.363 184.017L138.286 113.553L316.19 32.4438L403.52 72.8314L406.648 74.2812L491.567 113.553Z" fill="#464353"/>
<path d="M235.577 113.3L221.426 199.479C221.426 199.479 323.013 166.528 411.46 199.479L398.319 108.231C398.319 108.231 279.548 93.5295 235.577 113.3Z" fill="#464353"/>
<path d="M358.805 271.78C354.467 269.693 133.977 159.89 137.155 161.472C149.393 142.737 152.922 129.598 152.922 129.598L374.573 239.906C374.573 239.906 366.789 253.608 358.805 271.78Z" fill="#F5F5F5"/>
<defs>
<linearGradient id="paint0_linear" x1="247.586" y1="217.423" x2="264.222" y2="183.995" gradientUnits="userSpaceOnUse">
<stop stop-color="#808080" stop-opacity="0.25"/>
<stop offset="0.53514" stop-color="#808080" stop-opacity="0.12"/>
<stop offset="1" stop-color="#808080" stop-opacity="0.1"/>
</linearGradient>
<clipPath id="clip0">
<rect width="609" height="497" fill="white" transform="translate(0 191)"/>
</clipPath>
</defs>
</svg>
