<svg xmlns="http://www.w3.org/2000/svg" width="764" height="675" id="website-designing"><defs><linearGradient id="a" x1="14.648%" x2="85.355%" y1="14.645%" y2="85.352%"><stop offset="0%" stop-color="#EA971D"></stop><stop offset="100%" stop-color="#DC6734"></stop></linearGradient><linearGradient id="b" x1="50%" x2="50%" y1="100%" y2="0%"><stop offset="0%" stop-color="#B5A8AE"></stop><stop offset="100%" stop-color="#93778B"></stop></linearGradient><linearGradient id="c" x1="38.003%" x2="95.621%" y1="33.896%" y2="105.438%"><stop offset="0%" stop-color="#F2D265"></stop><stop offset="100%" stop-color="#DCBB60"></stop></linearGradient><linearGradient id="d" x1="39.858%" x2="72.074%" y1="32.596%" y2="70.938%"><stop offset="0%" stop-color="#EA971D"></stop><stop offset="100%" stop-color="#E9AA4A"></stop></linearGradient><linearGradient id="e" x1="31.261%" x2="95.783%" y1="27.382%" y2="105.079%"><stop offset="0%" stop-color="#AE2E41"></stop><stop offset="100%" stop-color="#DC6734"></stop></linearGradient><linearGradient id="f" x1="41.855%" x2="72.618%" y1="42.424%" y2="70.404%"><stop offset="0%" stop-color="#DC6734"></stop><stop offset="100%" stop-color="#EA971D"></stop></linearGradient><linearGradient id="g" x1="23.78%" x2="71.986%" y1="18.064%" y2="71.806%"><stop offset="0%" stop-color="#DC6734"></stop><stop offset="100%" stop-color="#EA971D"></stop></linearGradient><linearGradient id="h" x1="36.518%" x2="70.455%" y1="33.498%" y2="72.743%"><stop offset="0%" stop-color="#DC6734"></stop><stop offset="100%" stop-color="#EA971D"></stop></linearGradient><linearGradient id="i" x1="0%" x2="100%" y1="50.001%" y2="50.001%"><stop offset="0%" stop-color="#B5A8AE"></stop><stop offset="31.73%" stop-color="#B3A5AC"></stop><stop offset="57.83%" stop-color="#AC9BA4"></stop><stop offset="81.86%" stop-color="#A08998"></stop><stop offset="100%" stop-color="#93778B"></stop></linearGradient><linearGradient id="j" x1="23.843%" x2="80.867%" y1="-67.364%" y2="147.433%"><stop offset="0%" stop-color="#E9AA4A"></stop><stop offset="100%" stop-color="#EA971D"></stop></linearGradient><linearGradient id="k" x1="21.642%" x2="84.706%" y1="-30.628%" y2="92.986%"><stop offset="0%" stop-color="#F2D265"></stop><stop offset="100%" stop-color="#DCBB60"></stop></linearGradient><linearGradient id="l" x1="50%" x2="50%" y1="99.999%" y2="-.001%"><stop offset="0%" stop-color="#B39057"></stop><stop offset="100%" stop-color="#DCBB60"></stop></linearGradient><linearGradient id="m" x1="-19.02%" x2="98.87%" y1="12.442%" y2="89.552%"><stop offset="0%" stop-color="#EA971D"></stop><stop offset="100%" stop-color="#BE4118"></stop></linearGradient><linearGradient id="n" x1="13.506%" x2="101.19%" y1="19.367%" y2="80.921%"><stop offset="0%" stop-color="#DC6734"></stop><stop offset="100%" stop-color="#AE2E41"></stop></linearGradient><linearGradient id="o" x1=".003%" x2="100.001%" y1="50%" y2="50%"><stop offset="0%" stop-color="#5B252C"></stop><stop offset="17.05%" stop-color="#572433"></stop><stop offset="41.42%" stop-color="#4C2346"></stop><stop offset="70.18%" stop-color="#3B2064"></stop><stop offset="100%" stop-color="#241C8C"></stop></linearGradient><linearGradient id="p" x1="0%" x2="100.001%" y1="50%" y2="50%"><stop offset="0%" stop-color="#241C8C"></stop><stop offset="29.82%" stop-color="#3B2064"></stop><stop offset="58.58%" stop-color="#4C2346"></stop><stop offset="82.95%" stop-color="#572433"></stop><stop offset="100%" stop-color="#5B252C"></stop></linearGradient><linearGradient id="q" x1="-.373%" x2="100.832%" y1="42.743%" y2="58.547%"><stop offset="0%" stop-color="#5B252C"></stop><stop offset="17.05%" stop-color="#572433"></stop><stop offset="41.42%" stop-color="#4C2346"></stop><stop offset="70.18%" stop-color="#3B2064"></stop><stop offset="100%" stop-color="#241C8C"></stop></linearGradient><linearGradient id="r" x1="-.006%" x2="100%" y1="50%" y2="50%"><stop offset="0%" stop-color="#241C8C"></stop><stop offset="29.82%" stop-color="#3B2064"></stop><stop offset="58.58%" stop-color="#4C2346"></stop><stop offset="82.95%" stop-color="#572433"></stop><stop offset="100%" stop-color="#5B252C"></stop></linearGradient><linearGradient id="s" x1="50.008%" x2="50.008%" y1="100.006%" y2=".002%"><stop offset="0%" stop-color="#5B252C"></stop><stop offset="11.71%" stop-color="#5B2733"></stop><stop offset="28.45%" stop-color="#5B2E46"></stop><stop offset="48.21%" stop-color="#5B3964"></stop><stop offset="70.28%" stop-color="#5C4890"></stop><stop offset="94%" stop-color="#5C5BC6"></stop><stop offset="100%" stop-color="#5C60D5"></stop></linearGradient><linearGradient id="t" x1="50.002%" x2="50.002%" y1="99.999%" y2="-.002%"><stop offset="0%" stop-color="#DC6734"></stop><stop offset="100%" stop-color="#EA971D"></stop></linearGradient><linearGradient id="u" x1="-.001%" x2="99.999%" y1="50%" y2="50%"><stop offset="0%" stop-color="#EAAEA4"></stop><stop offset="31.26%" stop-color="#E8A89D"></stop><stop offset="78.25%" stop-color="#E39688"></stop><stop offset="100%" stop-color="#E08C7C"></stop></linearGradient><linearGradient id="v" x1="9.442%" x2="103.777%" y1="23.853%" y2="91.565%"><stop offset="0%" stop-color="#2421A2"></stop><stop offset="100%" stop-color="#250F50"></stop></linearGradient><linearGradient id="w" x1=".002%" x2="100.003%" y1="50%" y2="50%"><stop offset="0%" stop-color="#5C60D5"></stop><stop offset="100%" stop-color="#2421A2"></stop></linearGradient><linearGradient id="x" x1="-.001%" x2="99.998%" y1="50%" y2="50%"><stop offset="0%" stop-color="#5C60D5"></stop><stop offset="100%" stop-color="#2421A2"></stop></linearGradient><linearGradient id="y" x1="23.228%" x2="92.638%" y1="29.077%" y2="93.129%"><stop offset="0%" stop-color="#2421A2"></stop><stop offset="100%" stop-color="#250F50"></stop></linearGradient><linearGradient id="z" x1=".003%" x2="100%" y1="49.999%" y2="49.999%"><stop offset="0%" stop-color="#5C60D5"></stop><stop offset="100%" stop-color="#2421A2"></stop></linearGradient><linearGradient id="A" x1=".003%" x2="100%" y1="49.999%" y2="49.999%"><stop offset="0%" stop-color="#AE2E41"></stop><stop offset="100%" stop-color="#DC6734"></stop></linearGradient><linearGradient id="B" x1="10.615%" x2="83.809%" y1="19.595%" y2="101.619%"><stop offset="0%" stop-color="#F2D265"></stop><stop offset="100%" stop-color="#EA971D"></stop></linearGradient><linearGradient id="C" x1=".003%" x2="100.001%" y1="50%" y2="50%"><stop offset="0%" stop-color="#FCC3BB"></stop><stop offset="45.88%" stop-color="#F6BCB4"></stop><stop offset="100%" stop-color="#EAAEA4"></stop></linearGradient><linearGradient id="D" x1=".001%" x2="100%" y1="50.001%" y2="50.001%"><stop offset="0%" stop-color="#5C60D5"></stop><stop offset="100%" stop-color="#2421A2"></stop></linearGradient><linearGradient id="E" x1="31.122%" x2="83.799%" y1="18.225%" y2="71.043%"><stop offset="0%" stop-color="#2421A2"></stop><stop offset="100%" stop-color="#250F50"></stop></linearGradient><linearGradient id="F" x1="27.205%" x2="75.58%" y1="-8.414%" y2="77.767%"><stop offset="0%" stop-color="#F2D265"></stop><stop offset="100%" stop-color="#EA971D"></stop></linearGradient><linearGradient id="G" x1="-.002%" x2="100%" y1="49.998%" y2="49.998%"><stop offset="0%" stop-color="#895E68"></stop><stop offset="32.9%" stop-color="#76474F"></stop><stop offset="74.85%" stop-color="#622E36"></stop><stop offset="100%" stop-color="#5B252C"></stop></linearGradient><linearGradient id="H" x1="11.138%" x2="88.867%" y1="11.137%" y2="88.866%"><stop offset="0%" stop-color="#AE2E41"></stop><stop offset="100%" stop-color="#DC6734"></stop></linearGradient><linearGradient id="I" x1="21.417%" x2="78.911%" y1="57.198%" y2="42.721%"><stop offset="0%" stop-color="#5C60D5"></stop><stop offset="100%" stop-color="#2421A2"></stop></linearGradient><linearGradient id="J" x1=".354%" x2="106.327%" y1="60.257%" y2="38.365%"><stop offset="0%" stop-color="#5C60D5"></stop><stop offset="100%" stop-color="#2421A2"></stop></linearGradient><linearGradient id="K" x1=".001%" x2="100%" y1="50%" y2="50%"><stop offset="0%" stop-color="#AE2E41"></stop><stop offset="100%" stop-color="#DC6734"></stop></linearGradient><linearGradient id="L" x1="50%" x2="50%" y1="99.999%" y2=".001%"><stop offset="0%" stop-color="#DC6734"></stop><stop offset="100%" stop-color="#EA971D"></stop></linearGradient><linearGradient id="M" x1="-.001%" x2="100%" y1="49.998%" y2="49.998%"><stop offset="0%" stop-color="#895E68"></stop><stop offset="100%" stop-color="#5B252C"></stop></linearGradient><linearGradient id="N" x1="0%" x2="99.999%" y1="49.999%" y2="49.999%"><stop offset="0%" stop-color="#DCBB60"></stop><stop offset="100%" stop-color="#B39057"></stop></linearGradient><linearGradient id="O" x1="50%" x2="50%" y1="100%" y2=".001%"><stop offset="0%" stop-color="#B5A8AE"></stop><stop offset="3.76%" stop-color="#B3A5AC"></stop><stop offset="40.26%" stop-color="#A18C9A"></stop><stop offset="73.41%" stop-color="#977C8F"></stop><stop offset="100%" stop-color="#93778B"></stop></linearGradient><linearGradient id="P" x1="0%" x2="99.999%" y1="50.001%" y2="50.001%"><stop offset="0%" stop-color="#93778B"></stop><stop offset="31.97%" stop-color="#967C90"></stop><stop offset="71.76%" stop-color="#A08C9D"></stop><stop offset="100%" stop-color="#A99BAB"></stop></linearGradient><linearGradient id="Q" x1="50%" x2="50%" y1="100%" y2="0%"><stop offset="0%" stop-color="#895E68"></stop><stop offset="5.5%" stop-color="#8D616A"></stop><stop offset="36.19%" stop-color="#A17174"></stop><stop offset="67.47%" stop-color="#AC7A7A"></stop><stop offset="100%" stop-color="#B07D7C"></stop></linearGradient><linearGradient id="R" x1="50%" x2="50%" y1="100%" y2="0%"><stop offset="0%" stop-color="#895E68"></stop><stop offset="5.5%" stop-color="#8D616A"></stop><stop offset="36.19%" stop-color="#A17174"></stop><stop offset="67.47%" stop-color="#AC7A7A"></stop><stop offset="100%" stop-color="#B07D7C"></stop></linearGradient><linearGradient id="S" x1="0%" x2="99.999%" y1="50.003%" y2="50.003%"><stop offset="0%" stop-color="#B07D7C"></stop><stop offset="32.53%" stop-color="#AC7A7A"></stop><stop offset="63.81%" stop-color="#A17174"></stop><stop offset="94.5%" stop-color="#8D616A"></stop><stop offset="100%" stop-color="#895E68"></stop></linearGradient><linearGradient id="T" x1="0%" x2="100%" y1="49.997%" y2="49.997%"><stop offset="0%" stop-color="#B07D7C"></stop><stop offset="32.53%" stop-color="#AC7A7A"></stop><stop offset="63.81%" stop-color="#A17174"></stop><stop offset="94.5%" stop-color="#8D616A"></stop><stop offset="100%" stop-color="#895E68"></stop></linearGradient><linearGradient id="U" x1="0%" x2="100.001%" y1="50%" y2="50%"><stop offset="0%" stop-color="#B07D7C"></stop><stop offset="32.53%" stop-color="#AC7A7A"></stop><stop offset="63.81%" stop-color="#A17174"></stop><stop offset="94.5%" stop-color="#8D616A"></stop><stop offset="100%" stop-color="#895E68"></stop></linearGradient><linearGradient id="V" x1="0%" x2="99.999%" y1="49.998%" y2="49.998%"><stop offset="0%" stop-color="#B07D7C"></stop><stop offset="32.53%" stop-color="#AC7A7A"></stop><stop offset="63.81%" stop-color="#A17174"></stop><stop offset="94.5%" stop-color="#8D616A"></stop><stop offset="100%" stop-color="#895E68"></stop></linearGradient><linearGradient id="W" x1="50%" x2="50%" y1="100%" y2="0%"><stop offset="0%" stop-color="#5B252C"></stop><stop offset="26.42%" stop-color="#5E2930"></stop><stop offset="51.81%" stop-color="#67343B"></stop><stop offset="76.72%" stop-color="#76464F"></stop><stop offset="100%" stop-color="#895E68"></stop></linearGradient><linearGradient id="X" x1="0%" x2="100%" y1="49.998%" y2="49.998%"><stop offset="0%" stop-color="#895E68"></stop><stop offset="100%" stop-color="#5B252C"></stop></linearGradient><linearGradient id="Y" x1="0%" x2="100%" y1="50.001%" y2="50.001%"><stop offset="0%" stop-color="#895E68"></stop><stop offset="100%" stop-color="#5B252C"></stop></linearGradient><linearGradient id="Z" x1="0%" x2="100.001%" y1="50.002%" y2="50.002%"><stop offset="0%" stop-color="#895E68"></stop><stop offset="100%" stop-color="#5B252C"></stop></linearGradient><linearGradient id="aa" x1="0%" x2="99.999%" y1="50.001%" y2="50.001%"><stop offset="0%" stop-color="#895E68"></stop><stop offset="100%" stop-color="#5B252C"></stop></linearGradient><linearGradient id="ab" x1="50%" x2="50%" y1="100%" y2="0%"><stop offset="0%" stop-color="#5B252C"></stop><stop offset="26.42%" stop-color="#5E2930"></stop><stop offset="51.81%" stop-color="#67343B"></stop><stop offset="76.72%" stop-color="#76464F"></stop><stop offset="100%" stop-color="#895E68"></stop></linearGradient><linearGradient id="ac" x1="-.001%" x2="100.001%" y1="49.999%" y2="49.999%"><stop offset="0%" stop-color="#EAAEA4"></stop><stop offset="31.26%" stop-color="#E8A89D"></stop><stop offset="78.25%" stop-color="#E39688"></stop><stop offset="100%" stop-color="#E08C7C"></stop></linearGradient><linearGradient id="ad" x1="33.811%" x2="76.869%" y1="39.968%" y2="75.507%"><stop offset="0%" stop-color="#DC6734"></stop><stop offset="100%" stop-color="#AE2E41"></stop></linearGradient><linearGradient id="ae" x1="-.001%" x2="99.999%" y1="50%" y2="50%"><stop offset="0%" stop-color="#EAAEA4"></stop><stop offset="31.26%" stop-color="#E8A89D"></stop><stop offset="78.25%" stop-color="#E39688"></stop><stop offset="100%" stop-color="#E08C7C"></stop></linearGradient><linearGradient id="af" x1="-.002%" x2="100%" y1="50.001%" y2="50.001%"><stop offset="0%" stop-color="#5B252C"></stop><stop offset="100%" stop-color="#250F50"></stop></linearGradient><linearGradient id="ag" x1="0%" x2="99.999%" y1="50.009%" y2="50.009%"><stop offset="0%" stop-color="#2421A2"></stop><stop offset="100%" stop-color="#5C60D5"></stop></linearGradient><linearGradient id="ah" x1="-.001%" x2="100%" y1="49.999%" y2="49.999%"><stop offset="0%" stop-color="#5C60D5"></stop><stop offset="100%" stop-color="#2421A2"></stop></linearGradient><linearGradient id="ai" x1="15.618%" x2="88.777%" y1="-.33%" y2="112.841%"><stop offset="0%" stop-color="#2421A2"></stop><stop offset="100%" stop-color="#250F50"></stop></linearGradient><linearGradient id="aj" x1="-.003%" x2="99.993%" y1="50.001%" y2="50.001%"><stop offset="0%" stop-color="#EAAEA4"></stop><stop offset="31.26%" stop-color="#E8A89D"></stop><stop offset="78.25%" stop-color="#E39688"></stop><stop offset="100%" stop-color="#E08C7C"></stop></linearGradient><linearGradient id="ak" x1="24.482%" x2="100.408%" y1="13.643%" y2="90.35%"><stop offset="0%" stop-color="#DC6734"></stop><stop offset="100%" stop-color="#AE2E41"></stop></linearGradient><linearGradient id="al" x1=".001%" x2="100.001%" y1="50%" y2="50%"><stop offset="0%" stop-color="#EA971D"></stop><stop offset="100%" stop-color="#E1772C"></stop></linearGradient></defs><g fill="none" fill-rule="evenodd"><g transform="translate(227 458)"><ellipse cx="13.355" cy="27.992" fill="#B5A8AE" rx="13.326" ry="13.324"></ellipse><ellipse cx="358.029" cy="16.347" fill="url(#a)" rx="15.384" ry="15.382"></ellipse></g><path fill="#E3DDE4" d="M352.725 445.319h-1.875c-6.554 0-11.868-5.253-11.868-11.733v-37.67c0-6.067 4.66-11.06 10.635-11.67-.135-.003-.267-.019-.403-.019h-1.994c-6.978 0-12.634 5.591-12.634 12.49v40.101c0 6.899 5.656 12.49 12.634 12.49h1.994a12.64 12.64 0 0 0 11.26-6.847 11.894 11.894 0 0 1-7.749 2.858Z"></path><path fill="url(#b)" fill-rule="nonzero" d="M95.98 116.822s-9.147-35.724-12.967-62.167C79.688 31.64 75.698.684 75.698.684H48.214v.014l-.007-.014H20.724s-3.99 30.956-7.315 53.97C9.589 81.099.443 116.823.443 116.823h47.764l.007-.015v.015H95.98ZM46.22 90.308c-6.978 0-12.634-5.592-12.634-12.49V37.716c0-6.9 5.656-12.49 12.634-12.49h1.994c6.979 0 12.634 5.59 12.634 12.49v40.1c0 6.9-5.655 12.49-12.634 12.49H46.22Z" transform="translate(301 359)"></path><g transform="translate(174 118)"><path fill="#FFF" d="M350.55 230.302V13.935c0-6.222-5.051-11.266-11.282-11.266H87.119c-3 5.664-7.509 10.442-15.004 13.458-23.27 9.362-43.171 8.687-67.535 9.413v204.762h345.97Z"></path><path fill="url(#c)" d="M350.55 13.935c0-6.222-5.051-11.266-11.282-11.266h-30.646l-1.515 3.261c2.431 8.416.648 15.537-11.56 19.26-17.649 5.38-49.47.526-56.074 21.255-4.538 14.242 1.836 28.161 7.886 34.635 6.051 6.474 13.397 18.99-1.296 22.011-14.693 3.022-33.28-3.831-46.24-4.963-19.773-1.727-46.459-2.267-58.884 16.831-9.192 14.129-2.16 27.622 8.157 29.51 7.869 1.44 16.26-2.265 19.448-9.71 2.938-6.863-.59-12.873-5.672-13.918-5.24-1.08-10.195 2.478-11.236 5.773-.972 3.074.844 4.7 2.808 4.531 3.133-.27 4.485-3.021 5.726-1.727 1.59 1.657-.783 5.746-5.401 6.582-3.482.631-7.86-.189-8.86-6.474-.937-5.893 2.053-11.275 8.968-14.35 6.416-2.854 14.046-1.511 18.8 5.179 4.754 6.69 3.295 18.288-3.026 24.06-9.434 8.618-21.085 9.698-39.111 13.919-23.022 5.39-58.127 13.972-63.313 40.784-3.064 15.836 4.549 25.594 11.92 31.183H350.55V13.935Z"></path><path fill="url(#d)" d="M216.676 209.046c14.483-3.235 41.056-9.386 48.619-33.178 6.971-21.93-11.184-25.068-9.724-42.997 1.296-15.915 31.438-22.084 60.503-28.268 29.41-6.259 24.634-20.286 22.905-27.19 0 0-3.98-18.607 11.571-25.24V17.3l-2.927-1.334c-.648 4.532-16.337 20.813-32.878 21.383-16.605.574-40.05-4.39-51.881 11.147-9.392 12.335-.81 26.004 4.537 32.855 3.61 4.626 9.167 21.419-6.807 25.733-19.772 5.34-37.784-1.65-50.563-4.045-15.828-2.968-27.713 1.996-29.82 8.254-3.565 10.586 11.102 13.18 10.21 27.351-.757 12.03-21.118 22.47-50.077 26.705-32.467 4.748-44.763 16.838-45.216 31.29-.433 13.81 9.562 20.5 21.716 21.633 11.64 1.086 26.685-1.528 27.516 12.03h44.556c-4.298-19.5 15.586-18.534 27.76-21.255Z"></path><path fill="url(#e)" d="M283.446 146.682c-5.348 12.677 12.479 15.753 8.859 39.922-3.219 21.488-39.976 18.558-51.86 25.68-7.084 4.245-7.949 12.245-7.49 18.018H350.55v-97.61c-13.37 8.27-60.238-2.287-67.104 13.99Z"></path><path fill="url(#f)" d="M338.979 77.412c1.73 6.905 6.505 20.932-22.905 27.19-29.065 6.185-59.207 12.355-60.503 28.269-1.461 17.93 16.695 21.067 9.724 42.997-7.563 23.79-34.136 29.943-48.62 33.178-12.173 2.72-32.056 1.755-27.759 21.256h44.038c-.457-5.773.407-13.773 7.492-18.019 11.883-7.12 48.64-4.19 51.859-25.68 3.619-24.168-14.207-27.244-8.86-39.921 6.868-16.277 53.736-5.72 67.105-13.99V52.175C335 58.806 338.98 77.412 338.98 77.412Z"></path><path fill="url(#g)" d="M322.016 52.056c-4.214 4.532-11.452 6.258-18.582 7.229-7.13.97-19.88 2.266-25.985 13.163-6.07 10.839-.386 27.121 12.317 28.161 17.126 1.403 21.555-14.134 26.093-18.935 4.13-4.372 13.289-6.636 13.451-13.595.162-6.96-7.294-16.023-7.294-16.023Z"></path><path fill="url(#h)" d="M184.047 186.172c9.98 1.963 25.93-.15 31.115-6.905 4.97-6.474 2.162-14.243 6.483-18.343 4.32-4.1 21.733-16.003 25.065-22.659 3.025-6.042.648-13.81-6.266-16.184-6.694-2.298-12.533.647-15.558 6.69-3.026 6.043-5.834 15.105-17.503 21.795-9.74 5.583-31.676 11.572-34.79 21.579-2.483 7.985 4.323 12.624 11.454 14.027Z"></path><path fill="#93778B" d="M339.537 9.143c1.77 0 3.212 1.105 3.212 2.464V230.41h11.81V11.607c0-6.367-6.725-11.528-15.022-11.528H8.115C6.232 3.389 3.82 6.46.546 9.143h338.99Z"></path><path fill="#93778B" d="M9.646 230.409V.403C6.686.485 3.665.58.57.706v229.703h9.076Z"></path><path fill="url(#i)" d="M.57 228.682v12.21c0 6.366 5.168 11.528 11.544 11.528h330.903c6.375 0 11.543-5.162 11.543-11.528v-12.21H.57Z"></path><path fill="#E3DDE4" d="M134.347 111.58a2.59 2.59 0 0 1-2.593 2.59H31.6a2.592 2.592 0 0 1-2.593-2.59V72.09c0-1.43 1.16-2.59 2.593-2.59h100.155a2.591 2.591 0 0 1 2.593 2.59v39.49Z"></path><path fill="#B5A8AE" fill-rule="nonzero" d="M131.754 115.14H31.6a3.567 3.567 0 0 1-3.565-3.56V72.09c0-1.964 1.6-3.56 3.565-3.56h100.155a3.567 3.567 0 0 1 3.566 3.56v39.49c0 1.964-1.6 3.56-3.566 3.56ZM31.6 70.473c-.893 0-1.62.726-1.62 1.618v39.49c0 .892.726 1.619 1.62 1.619h100.155c.894 0 1.621-.726 1.621-1.619V72.09a1.62 1.62 0 0 0-1.62-1.618H31.598Z"></path><g fill="#FFF"><path d="M39.784 82.69h83.624a1.377 1.377 0 1 0 0-2.75H39.784a1.377 1.377 0 1 0 0 2.75ZM39.784 93.211H80.19a1.377 1.377 0 1 0 0-2.752H39.784a1.377 1.377 0 1 0 0 2.752ZM123.408 90.46h-16.099a1.377 1.377 0 1 0 0 2.752h16.099a1.377 1.377 0 1 0 0-2.752ZM99.935 91.836c0-.76-.616-1.376-1.377-1.376H89.05a1.377 1.377 0 1 0 0 2.752h9.507c.761 0 1.377-.616 1.377-1.376ZM108.174 100.98h-9.507a1.377 1.377 0 1 0 0 2.752h9.507a1.376 1.376 0 1 0 0-2.752ZM88.645 100.98H39.785a1.377 1.377 0 1 0 0 2.752h48.86a1.377 1.377 0 1 0 0-2.752Z"></path></g><path fill="#B5A8AE" d="m124.776 44.535.926 1.37-37.233 24.172-.925-1.37zM58.81 188.205l-1.48-1.26 37.378-43.69-35.516-28.29 1.213-1.52 37.088 29.544z"></path><path fill="#93778B" d="M77.95 195.667h137.429v1.942H77.95z"></path><path fill="#BE4118" d="M88.97 197.286c0 4.648-3.774 8.416-8.428 8.416H37.433c-4.654 0-8.427-3.768-8.427-8.416v-1.295c0-4.648 3.773-8.416 8.427-8.416h43.11c4.654 0 8.426 3.769 8.426 8.416v1.295Z"></path><path fill="#B5A8AE" fill-rule="nonzero" d="M80.542 206.672H37.433c-5.183 0-9.4-4.21-9.4-9.387v-1.295c0-5.176 4.218-9.386 9.4-9.386h43.11c5.182 0 9.399 4.211 9.399 9.386v1.295c0 5.176-4.217 9.387-9.4 9.387Zm-43.109-18.127c-4.11 0-7.455 3.34-7.455 7.445v1.295c0 4.105 3.345 7.445 7.455 7.445h43.11c4.11 0 7.454-3.34 7.454-7.445v-1.295c0-4.105-3.345-7.445-7.455-7.445H37.433Z"></path><path fill="#5C60D5" d="M173.89 197.286c0 4.648-3.772 8.416-8.427 8.416h-43.108c-4.656 0-8.427-3.768-8.427-8.416v-1.295c0-4.648 3.772-8.416 8.427-8.416h43.108c4.655 0 8.427 3.769 8.427 8.416v1.295Z"></path><path fill="#93778B" fill-rule="nonzero" d="M165.463 206.672h-43.108c-5.183 0-9.4-4.21-9.4-9.387v-1.295c0-5.176 4.218-9.386 9.4-9.386h43.108c5.183 0 9.4 4.211 9.4 9.386v1.295c0 5.176-4.217 9.387-9.4 9.387Zm-43.108-18.127c-4.112 0-7.455 3.34-7.455 7.445v1.295c0 4.105 3.344 7.445 7.455 7.445h43.108c4.11 0 7.455-3.34 7.455-7.445v-1.295c0-4.105-3.345-7.445-7.455-7.445h-43.108Z"></path><ellipse cx="96.1" cy="143.121" fill="#B5A8AE" rx="9.292" ry="9.28"></ellipse><ellipse cx="96.1" cy="143.121" fill="#FFF" rx="4.079" ry="4.074"></ellipse><path fill="#5C60D5" d="M158.224 36.752c0 5.352-4.344 9.69-9.702 9.69H98.888c-5.36 0-9.702-4.34-9.702-9.69v-1.49c0-5.352 4.344-9.69 9.702-9.69h49.634c5.358 0 9.702 4.338 9.702 9.69v1.49Z"></path><path fill="#B5A8AE" fill-rule="nonzero" d="M148.522 47.413H98.888c-5.886 0-10.675-4.783-10.675-10.661v-1.49c0-5.88 4.79-10.661 10.675-10.661h49.634c5.886 0 10.675 4.782 10.675 10.66v1.49c0 5.88-4.789 10.662-10.675 10.662Zm-49.634-20.87c-4.814 0-8.73 3.91-8.73 8.718v1.49c0 4.809 3.916 8.72 8.73 8.72h49.634c4.814 0 8.73-3.911 8.73-8.72v-1.49c0-4.808-3.916-8.719-8.73-8.719H98.888Z"></path></g><path fill="url(#j)" d="M237.44 16.452C144.898-15.788 42.7 9.002.66 25.41 26.38 39.887 87.3 38.355 110.316 54.042c10.36 7.06 16.45 18.266 20.822 30.811 22.477 6.826 44.268 14.213 61.716 20.784 45.269 17.047 186.068-14.663 217.516-22.099V44.56c-32.017 7.226-71.266 7.312-172.932-28.107Z" transform="translate(213 466)"></path><path fill="url(#k)" d="M227.7 105.789c4.782 7.714.129 15.977-15.9 22.863-13.51 5.805-20.369 15.915-11.377 23.44.23.193.474.385.726.574l.161.119c.215.158.437.316.668.471l.181.124c.26.171.528.341.806.51.03.017.057.035.086.053.63.377 1.31.746 2.037 1.104l.241.116c.286.137.578.273.877.408l.291.129c.318.14.646.276.98.413l.219.09a49.264 49.264 0 0 0 1.322.503c.422.153.858.302 1.303.449l.373.12c.342.111.693.22 1.05.328a65.398 65.398 0 0 0 1.567.448l.391.108c.519.137 1.047.272 1.59.404l.066.014c.513.123 1.042.243 1.58.36.171.038.346.073.52.11a83.027 83.027 0 0 0 3.117.601l.564.1a105.912 105.912 0 0 0 5.006.732c.292.037.586.072.882.108.835.1 1.677.196 2.527.283.237.025.472.052.71.075 1.058.105 2.126.2 3.202.288.248.02.5.038.748.056.868.067 1.744.128 2.623.185.31.019.622.04.933.058 1.087.064 2.179.123 3.28.173l.06.002c1.119.05 2.247.091 3.378.127.327.011.656.02.984.03.893.025 1.788.046 2.686.064.272.006.543.013.816.017 1.126.019 2.256.033 3.39.042.292.003.583.003.875.005.887.005 1.775.008 2.665.007l1.078-.001a546.4 546.4 0 0 0 6.864-.064l1.242-.02c.6-.01 1.202-.02 1.804-.032 45.902-2 129.778-25.601 146.351-85.522l.013-.002.053-.242c.167-.8.344-1.603.534-2.407.137-.586.277-1.173.426-1.76a114.895 114.895 0 0 1 1.08-3.915 54.322 54.322 0 0 1 1.22-3.554c.282-.747.58-1.491.895-2.235.079-.188.152-.377.234-.564a73.59 73.59 0 0 1 1.068-2.348l.01.005c6.457-13.494 17.744-26.667 28.224-41.8-31.116-1.274-75.682-14.957-111.733-16.93-.022-.003-.045-.004-.067-.006l-.093-.006A276.067 276.067 0 0 0 314.17.013c-57.648.55-108.314 26.627-126.906 27.043-26.932.604-67.488-13.638-113.113-15.474-35.495-1.429-58.714 2.43-74.15 7.524 41.19 19.747 25.892 78.054 66.379 88.16 37.438 9.343 104.929-9.204 120.994-11.395 19.194-2.616 34.443.428 40.327 9.918Z" transform="translate(317 499)"></path><path fill="url(#l)" d="M81.902 45.328c26.05-2.528 49.856 8.745 66.81 7.946 15.332-.722 35.55-15.904 50.358-17.096 13.461-1.084 25.07 2.65 24.929 14.689-.124 10.594-14.708 11.798-24.182 11.558-9.473-.241-34.545-2.995-42.13-1.205-11.218 2.65-10.648 11.631-21.19 16.133-11.842 5.057-37.643 4.816-58.584-.481-20.94-5.298-34.39-10.573-33.9-13.003.49-2.43 9.345-15.773 37.889-18.541Z" transform="translate(317 499)"></path><path fill="#EA971D" d="M587.972 276.214a285.242 285.242 0 0 1 8.354 8.363c2.743 2.824 5.387 5.735 8.136 8.556 2.747 2.822 5.535 5.605 7.994 8.68a85.638 85.638 0 0 1 1.811 2.334c.58.8 1.19 1.573 1.69 2.442.506.863.93 1.8 1.267 2.81.326 1.024.572 2.115.593 3.405-1.283-.182-2.339-.563-3.317-1.013a14.884 14.884 0 0 1-2.64-1.606c-.803-.603-1.496-1.303-2.22-1.975a84.373 84.373 0 0 1-2.098-2.084c-2.752-2.816-5.175-5.921-7.64-8.99-2.465-3.07-5.031-6.048-7.5-9.114a283.78 283.78 0 0 1-7.28-9.306 1.893 1.893 0 0 1 .392-2.657 1.913 1.913 0 0 1 2.458.155Z"></path><path fill="#BE4118" d="M610.738 309.89h-.013a.654.654 0 0 1-.654-.651c0-.682.597-1.945 1.598-2.877a4.92 4.92 0 0 1 3.753-1.344.665.665 0 1 1-.087 1.325 3.546 3.546 0 0 0-2.695.933c-.832.746-1.227 1.72-1.236 1.965a.675.675 0 0 1-.666.65ZM591.07 279.251c-1.027-1.018-2.053-2.036-3.098-3.037a1.913 1.913 0 0 0-2.459-.154 1.894 1.894 0 0 0-.391 2.657c.885 1.186 1.792 2.355 2.698 3.524.534-1.165 1.477-2.432 3.25-2.99ZM617.553 310.64l-1.682 1.696a10.71 10.71 0 0 0 1.946.467 10.614 10.614 0 0 0-.264-2.163Z"></path><path fill="#EAAEA4" d="M543.063 510.056c2.191 4.662 13.811 33.794 13.155 36.015-.657 2.22-29.67 12.425-35.681 10.17-.784-.295-.642-2.188.594-2.878 3.15-1.759 18.637-11.45 20.01-14.41 1.258-2.714-10.947-22.043-10.738-22.16.665-.372 12.66-6.737 12.66-6.737Z"></path><path fill="#FFF" d="M554.97 540.841c-1.164-3.593-2.987-8.553-4.875-13.468-4.09 3.66-8.624 4.4-11.3 4.505 1.654 3.333 2.772 6.157 2.346 7.075-.55 1.189-3.373 3.458-6.758 5.866 4.568.374 13.276 1.087 13.452 1.087.133 0 3.824-2.66 7.136-5.065Z"></path><path fill="#5B252C" d="M520.538 556.24c6.012 2.255 35.024-7.95 35.68-10.17.187-.632-.618-3.436-1.915-7.231-2.072 1.193-4.226 3.887-5.745 4.605-2.083.984-3.952.876-7.398.219-1.707-.323-2.973-.643-4.12-.8-5.207 3.998-13.67 9.25-15.908 10.5-1.236.69-1.378 2.582-.594 2.877Z"></path><path fill="url(#m)" d="M.745.297c.215 5.25 7.48 50.307 10.471 67.804 2.992 17.497 9.028 47.134 10.63 47.626 1.603.492 10.257.984 25.804-2.297 15.545-3.281 26.924-9.679 27.084-10.334.16-.657-16.287-38.822-24.51-60.813C42.002 20.29 36.911 1.062 36.911 1.062L.745.297Z" transform="translate(484 410)"></path><path fill="#5B252C" d="M501.987 510.974c-.186 0-.36-.003-.52-.01l.05-1.31c6.233.246 35.16-4.926 50.214-13.683l.634 1.14c-15.144 8.808-42.974 13.863-50.378 13.863Z"></path><path fill="#EA971D" fill-rule="nonzero" d="M503.188 516.16c-.194 0-.376-.004-.543-.012l.05-1.31c1.307.049 3.507-.12 6.292-.488l.164 1.304c-2.514.33-4.575.505-5.963.505Zm12.335-1.51-.22-1.294c2.029-.364 4.142-.782 6.28-1.24l.263 1.284c-2.152.461-4.28.882-6.323 1.25Zm12.603-2.703-.302-1.275c2.098-.522 4.18-1.076 6.189-1.65l.345 1.265a190.68 190.68 0 0 1-6.232 1.66Zm12.402-3.554-.394-1.249a115.15 115.15 0 0 0 6.02-2.167l.459 1.225c-1.886.741-3.933 1.48-6.085 2.19Zm12.03-4.802-.558-1.182c.734-.362 1.44-.732 2.103-1.1l.61 1.156c-.68.376-1.405.754-2.154 1.126Z"></path><path fill="#5B252C" d="M520.68 507.529c-.31-1.118-1.412-4.782-2.937-9.852-6.437-21.406-21.512-71.53-24.12-87.066l1.263-.221c2.595 15.453 17.653 65.52 24.083 86.901 1.585 5.268 2.632 8.749 2.943 9.883l-1.232.355Z"></path><path fill="#EAAEA4" d="M458.884 527.25c-.492 5.325-6.225 37.431-8.027 39.043-1.802 1.615-40.298-.321-40.298-2.903 0-2.581 2.62-2.581 6.389-3.389 3.767-.806 21.558-5.573 23.643-7.905 2.084-2.33 2.494-25.729 2.246-25.795-.246-.067 16.047.95 16.047.95Z"></path><path fill="#FFF" d="M442.294 542.789v.001c-.364 4.515-.913 8.422-1.703 9.306-.94 1.053-5.077 2.597-9.68 4.054l1.927 2.561 8.518 4.355 11.064-1.266c1.054-4.107 2.349-10.427 3.505-16.595-9.23.215-11.512-1.39-13.63-2.416Z"></path><path fill="#5B252C" d="M410.56 563.39c0 2.582 38.496 4.518 40.297 2.903.517-.462 1.357-3.432 2.304-7.558-3.047.221-5.905 2.342-9.838 2.342-3.953 0-7.39-3.492-9.898-5.747-6.083 2.062-14.09 4.162-16.477 4.671-3.768.808-6.389.808-6.389 3.389Z"></path><path fill="url(#n)" d="M35.288.737c-2.616 4.957-21.459 54.53-26.21 70.986C4.326 88.18.559 103.507 1.542 104.797c.983 1.29 10.157 5.971 25.063 8.228 14.907 2.26 33.791 4.156 36.062 3.206 2.27-.947 5.275-41.496 9.643-66.233C76.678 25.26 83.887.952 83.887.952L35.288.737Z" transform="translate(410 416)"></path><path fill="#5B252C" d="M475.193 514.836c-29.972 0-54.952-9.602-60.238-12.948l.709-1.086c5.248 3.323 30.27 12.898 60.296 12.74l.007 1.29c-.258.002-.517.004-.774.004Z"></path><g fill="#EA971D"><path d="M416.27 510.16c-1.327-.546-2.349-1.044-3.035-1.479l.709-1.084c.613.387 1.592.862 2.831 1.372l-.505 1.192Z"></path><path fill-rule="nonzero" d="M465.597 520.342c-2.059-.151-4.175-.34-6.288-.566l.14-1.284c2.1.223 4.2.413 6.245.563l-.097 1.287Zm-12.556-1.337a211.903 211.903 0 0 1-6.238-.958l.221-1.272c2.06.348 4.145.668 6.2.952l-.183 1.278Zm-12.444-2.102a212.871 212.871 0 0 1-6.17-1.328l.3-1.256c1.995.462 4.057.906 6.13 1.32l-.26 1.264Zm-12.295-2.857a141.906 141.906 0 0 1-6.066-1.761l.4-1.23c1.862.59 3.883 1.177 6.01 1.748l-.344 1.243Z"></path><path d="M475.195 520.78a154.623 154.623 0 0 1-3.29-.09l.049-1.289c1.085.041 2.174.07 3.263.088l-.022 1.29Z"></path></g><path fill="#5B252C" d="m439.69 509.831-1.303-.143c.936-8.34 13.626-78.79 25.392-93.27l1.023.806c-11.376 14.005-24.217 84.636-25.112 92.607Z"></path><path fill="#E08C7C" d="M517.01 274.12c-.543 3.132-2.72 13.283-6.202 17.71-3.48 4.429 21.108 1.62 21.108 1.62s-.524-12.615.11-21.166c.003-2.609-2.722-4.104-6.692-3.59-4.372.566-8.324 5.426-8.324 5.426Z"></path><path fill="#EAAEA4" d="M516.385 241.452c-2 1.579-3.958 4.819-5.794 8.18-1.37 2.508-1.999 3.443-5.14 5.589-2.462 1.681-4.052 2.253-4.163 3.483-.108 1.215 2.938 2.592 3.02 3.645.082 1.053-2.288 10.805 1.877 14.66 2.83 2.62 12.568 2.89 21.185-3.699 7.726-5.906 13.496-20.437 10.721-27.808-2.775-7.371-21.706-4.05-21.706-4.05Z"></path><path fill="url(#o)" d="M21.342.636c2.394.783 3.21 4.562 2.693 6.317-.532 1.803-1.704 4.51 4.08 5.751 5.146 1.106 22.195 4.78 23.582 20.492 1.623 18.386-20.237 26.161-23.91 21.383-5.43-7.067-5.457-16.01-3.427-19.277 1.39-2.237 6.346-2.62 5.875-5.669-.68-4.4-10.12-3.747-16.32-6.733C7.711 19.914 5.672 14 6.57 8.656 7.614 2.442 14.805-1.502 21.342.636Z" transform="translate(501 220)"></path><path fill="url(#p)" d="M15.927 42.53c1.292 4.923-.992 10.132-5.165 10.949-4.424.866-8.392-2.349-9.869-7.688-1.357-4.91.106-10.245 4.94-11.357 4.65-1.07 8.803 3.171 10.094 8.095Z" transform="translate(548 212)"></path><path fill="url(#q)" d="M31.371 31.531c2.585 5.487.579 10.987-4.628 13.054-6.628 2.63-12.275-.692-14.86-6.179-2.587-5.487-.352-12.63 4.871-14.667 5.224-2.035 12.031 2.306 14.617 7.792Z" transform="translate(548 212)"></path><path fill="url(#r)" d="M39.49 19.717c3.155 3.567 2.27 8.895-1.343 11.538-3.616 2.644-9.104 1.896-12.258-1.671s-3.322-8.168.293-10.812c3.614-2.643 10.154-2.621 13.309.945Z" transform="translate(548 212)"></path><path fill="url(#s)" d="M34.587 4.34c1.008-3.053 4.244-4.87 7.229-4.056 2.985.814 4.589 3.95 3.583 7.004-1.008 3.053-4.243 4.87-7.23 4.056-2.984-.813-4.589-3.949-3.582-7.003Z" transform="translate(548 212)"></path><g transform="translate(521 236)"><path fill="url(#t)" d="M20.4 7.596c-.104 2.829-.809 5.59-2 8.142-1.187 2.556-2.842 4.908-4.782 7.016a34.499 34.499 0 0 1-4.795 4.308c-.285.211-.573.417-.86.613-.28.19-.596.399-.82.528l3.474 4.96c.42-.305.73-.557 1.069-.837.33-.273.65-.55.964-.83a39.424 39.424 0 0 0 5.077-5.49c2.007-2.636 3.678-5.55 4.789-8.686 1.117-3.13 1.635-6.482 1.438-9.77a24.596 24.596 0 0 0-.802-4.938 30.357 30.357 0 0 0-3.634-1.96c.65 2.289.97 4.633.881 6.944Z"></path><ellipse cx="8.881" cy="30.683" fill="#BE4118" rx="8.356" ry="8.147"></ellipse><ellipse cx="8.881" cy="30.683" fill="#EA971D" rx="3.705" ry="3.612"></ellipse></g><path fill="url(#u)" d="M34.886 50.397c2.324-2.017 4.888-12.467 6.518-24.104 1.052-7.505 1.762-12.59 3.206-15.37 1.414-2.722 5.184-5.106 6.704-6.246 2.043-1.534 5.128-5.058 6.17-4.395 1.042.663-.16 4.063-1.363 5.639-1.202 1.575-2.885 3.897-2.885 3.897s5.69-.746 8.975-.746c3.286 0 12.032-1.064 12.501 1.244.349 1.714-3.526 2.322-4.968 2.902-1.443.58-2.724.802-2.965 3.621-.24 2.82-1.15 6.13-3.153 6.38-2.004.249-11.673-.381-11.673-.381s.028 20.483-2.003 32.756c-2.03 12.273-4.594 16.032-4.594 16.032l-10.47-21.23Z" transform="translate(533 289)"></path><path fill="url(#v)" d="M30.559 50.701c.509-.703 4.086-2.155 4.888-1.576.801.58 10.123 10.505 12.02 21.893 2.047 12.303.08 18.133-1.523 18.492-1.938.436-18.09-.663-24.27-9.701-6.18-9.04 8.885-29.108 8.885-29.108Z" transform="translate(533 289)"></path><path fill="url(#w)" d="M8.602 23.418c3.526 2.156 16.939 14.605 21.795 25.044 5.209 11.196 5.013 27.163-1.602 31.347-7.212 4.56-14.104-6.468-17.63-13.931C7.64 58.414 2.618 50.176.695 46.693c-1.923-3.482 4.06-20.123 4.06-20.123l3.847-3.152Z" transform="translate(533 289)"></path><path fill="url(#x)" d="M74.777 3.734c5.884-3.647 37.01-5.49 38.25-1.288.981 3.325-5.34 4.613-6.647 10.62-1.309 6.007-31.603-9.332-31.603-9.332Z" transform="translate(429 292)"></path><path fill="url(#y)" d="M60.283 7.273c3.921-3.008 12.259-5.738 18.96-3.647 6.703 2.092 13.949 6.597 17.992 7.08 4.045.483 9.654.742 9.654.742s10.278 5.05 10.933 7.302c.654 2.252-1.645 14.675-8.827 28.157-7.715 14.48-6.878 20.842-6.212 30.41.631 9.08 8.99 36.362 7.846 40.546-1.144 4.183-16.673 9.975-50.837 10.459-34.164.482-59.501-3.219-59.501-6.437 0-3.217 10.976-36.506 12.963-38.425 1.586-1.531 2.566-.19 3.22-1.075.654-.885 8.99-18.906 15.692-30.169 6.703-11.261 23.432-41.349 28.117-44.943Z" transform="translate(429 292)"></path><path fill="url(#z)" d="M46.796 98.797c5.096-1.796 6.403-10.536 5.104-10.444-6.929.496-30.03-2.508-35.715-5.719-.646.32-1.564-.494-2.932.826-.95.917-3.953 9.004-6.831 17.547 8.921.19 34.806-.247 40.374-2.21Z" transform="translate(429 292)"></path><path fill="#BE4118" d="M507.809 334.67c1.262 1.562 5.585-1.474 7.219-2.117 1.635-.644 7.226-2.413 7.193-4.345-.042-2.333-5.21-2.852-8.991-1.206-4.25 1.85-6.743 6.033-5.421 7.669Z"></path><path fill="url(#A)" d="M117.822 18.75c-.549-1.886-7.853-5.738-10.205-6.936.832 1.252 2.14 3.397-1.129 4.792-3.27 1.394-16.783 3.325-16.02 8.58.764 5.257 9.372.108 11.443 2.897 2.07 2.79-7.846 9.976-3.923 12.765 3.923 2.789 6.757-6.436 10.135-6.007 2.568.327 3.245 3.75 3.472 6.787 5.136-11.315 6.794-20.923 6.227-22.877Z" transform="translate(429 292)"></path><path fill="url(#B)" d="M102.24 113.572c-4.796-.965-8.284 2.682-10.136 1.61-1.852-1.072 6.974-8.475 2.833-11.263-4.14-2.79-9.372 7.401-10.461 7.293-1.09-.108 4.468-13.407 5.23-17.913.764-4.506 1.636-14.589-2.832-15.34-4.468-.75-8.718 7.402-10.68 11.157-1.961 3.755-4.032 16.09-5.121 16.52-1.09.428-1.526-16.628-1.744-19.093-.22-2.468-.655-5.304-3.706-5.365-2.67-.053-3.923 3.112-4.25 6.114-.326 3.004 2.397 25.744-.436 26.174-2.833.429-5.776-9.44-8.173-8.044-2.398 1.393-.872 6.864.435 10.94 1.005 3.13 3.995 8.502 5.579 11.97l1.014-.01c28.614-.406 44.149-4.534 49.115-8.324-1.351-2.466-3.695-5.827-6.668-6.426Z" transform="translate(429 292)"></path><path fill="#EA971D" d="M525.408 391.038c1.634.885 4.005-2.012 5.558-4.424 1.553-2.414 3.187-6.516 1.308-7.562-1.881-1.045-4.823.484-6.293 3.86-1.473 3.38-2.207 7.24-.573 8.126Z"></path><path fill="url(#C)" d="M54.139 57.543c-3.47-2.776-30.225-31.419-29.497-35.03.75-3.714 1.042-6.908 1.42-8.98.687-3.777 3.746-9.227 3.234-9.962-.753-1.078-2.643-.04-4.473 1.692-1.44 1.365-5.939 7.208-5.939 7.208s-2.918-.572-7.177-3.838C7.448 5.367 3.505.223 1.386.774c-1.831.476-.09 3.286.777 4.593.868 1.306 1.542 3.405 1.737 4.072.504 1.737.59 6.91-.316 8.828-.515 1.09-1.578 1.225-1.656 2.695-.083 1.554 5.048 6.696 8.28 7.675 2.517.763 2.997.083 3.55.735.956 1.13 19.388 35.184 26.973 40.908 7.585 5.726 13.408-12.737 13.408-12.737Z" transform="translate(372 219)"></path><path fill="#E08C7C" d="M374.891 225.673c.952 1.331 2.002 2.594 3.06 3.842a65.95 65.95 0 0 0 1.622 1.835c.547.586 1.123 1.213 1.696 1.656l.025.018c.181.14.219.407.084.595a.401.401 0 0 1-.594.07c-.685-.597-1.18-1.226-1.72-1.865a70.16 70.16 0 0 1-1.535-1.945c-.995-1.317-1.976-2.642-2.866-4.044a.146.146 0 0 1 .04-.2.139.139 0 0 1 .188.038Z"></path><path fill="url(#D)" d="M126.908 77.194c2.366 6.478-4.837 18.889-21.19 21.829-18.071 3.249-48.738-3.267-57.467-10.343-8.73-7.077 1.366-13.391 5.257-17.965 3.891-4.572 8.643-12.972 14.837-10.35 6.194 2.622 11.032 9.48 13.976 10.133 2.944.653 33.865.935 38.277 1.633a8.011 8.011 0 0 1 6.31 5.063Z" transform="translate(372 219)"></path><path fill="url(#E)" d="M69.726 61.03c-3.678 1.903-12.353 15.62-14.64 23.704-2.288 8.084-2.101 12.073-3.734 11.677-3.365-.817-21.572-12.383-21.268-18.78.237-4.981 9.07-8.656 15.222-13.882 3.968-3.371 8.044-8.329 11.751-8.247 5.365.118 12.67 5.529 12.67 5.529Z" transform="translate(372 219)"></path><path fill="url(#F)" d="M74.251 82.366c2.405 2.549 5.789-4.73 8.13-4.593 3.546.206 3.358 7.806 7.091 11.207 1.186 1.08 3.734 2.205 5.963 1.067 1.719-.878 2.976-2.836 2.503-5.232-.444-2.252-2.366-4.247-1.446-5.635 1.137-1.716 3.313 1.47 7.73.164 3.31-.98 4.804-5.31 3.117-7.864-10.188-.304-22.658-.563-24.888-.957-3.601 2.335-11.025 8.85-8.2 11.843Z" transform="translate(372 219)"></path><path fill="#EA971D" d="M479.875 302.237c1.5-1.332 4.628-.327 6.204 2.395 1.577 2.722 1.998 6.205.42 7.294-1.508 1.041-4.417-.185-6.151-2.94-1.281-2.035-2.681-4.79-.473-6.75Z"></path><path fill="#5C60D5" d="m581.21.939 28.07 24.127-22.854 32.073-26.31-25.542z"></path><path fill="#BE4118" d="M618.48 57.14h-32.054l22.853-32.074h31.91z"></path><path fill="#EA971D" d="M609.28 25.066h31.908L614.24 2.398 581.211.938z"></path><path fill="#F2D265" d="M618.48 57.463a.33.33 0 0 1-.227-.09L591.827 31.92h-31.711a.324.324 0 1 1 0-.647h31.843c.085 0 .167.033.227.091l26.521 25.542a.322.322 0 0 1-.227.556Z"></path><path fill="#F2D265" d="M591.958 31.921a.324.324 0 0 1-.258-.52l22.28-29.2a.329.329 0 0 1 .457-.062c.143.108.172.31.062.453l-22.28 29.2a.325.325 0 0 1-.26.13Z"></path><path fill="#2421A2" d="M616.662 10.683 602.955 29.84a4.262 4.262 0 0 1 .29 5.32 4.337 4.337 0 0 1-6.02 1.012 4.265 4.265 0 0 1-1.02-5.975c1.182-1.652 3.324-2.217 5.136-1.49l13.71-19.16-29.855 10.008s2.329 7.066 2.173 11.82c-.163 4.978-4.924 11.445-4.924 11.445l4.805 3.387 1.043.737 1.611 1.137 1.887 1.33 3.962 2.794s4.582-6.591 9.264-8.385c4.47-1.712 11.956-1.855 11.956-1.855l-.31-31.282Z"></path><path fill="url(#G)" d="M22.77 42.223s.9 3.017 5.53 6.282c4.63 3.264 7.778 3.103 7.778 3.103s2.436-3.503 5.57-6.096c0 0-4.132-.532-8.582-3.67-4.45-3.137-6.332-6.847-6.332-6.847-1.435 3.79-3.964 7.228-3.964 7.228Z" transform="translate(559.675 .598)"></path><path fill="#F2D265" fill-rule="nonzero" d="M586.426 57.463a.325.325 0 0 1-.227-.092l-26.311-25.542a.322.322 0 0 1-.042-.414L580.94.755a.324.324 0 0 1 .228-.137.32.32 0 0 1 .254.077l28.069 24.127c.127.109.15.296.053.432l-22.853 32.073a.324.324 0 0 1-.237.135l-.029.001Zm-25.888-25.907 25.843 25.086 22.461-31.524-27.568-23.697-20.736 30.135Z"></path><path fill="#F2D265" fill-rule="nonzero" d="M618.48 57.463h-32.054a.324.324 0 0 1-.266-.51l22.853-32.074a.327.327 0 0 1 .266-.137h31.91a.324.324 0 0 1 .266.51l-22.708 32.073a.327.327 0 0 1-.267.138Zm-31.424-.647h31.255l22.25-31.426h-31.113l-22.392 31.426Z"></path><path fill="#F2D265" fill-rule="nonzero" d="M641.188 25.39H609.28a.331.331 0 0 1-.214-.079L580.997 1.184a.32.32 0 0 1-.089-.365c.052-.128.157-.214.318-.203l33.029 1.46c.072.003.14.03.195.077L641.4 24.82a.321.321 0 0 1-.212.569Zm-31.788-.648h30.9L614.114 2.716l-31.98-1.412L609.4 24.742Z"></path><path fill="url(#H)" d="M26.614 23.919 72.474 11l13.14 45.084L39.756 69z" transform="translate(70 7)"></path><path fill="#5C60D5" d="m97.375 31 45.24-12.924L114.66 8 71.614 20.3z"></path><path fill="url(#I)" d="M26.558 23.93.614 13 13.14 57.197 39.614 70z" transform="translate(70 7)"></path><path fill="#EA971D" d="M82.934 64a.32.32 0 0 1-.091-.626l44.051-13.048-13.35-42.912a.32.32 0 0 1 .61-.19L127.6 50.447a.323.323 0 0 1-.023.246.31.31 0 0 1-.19.155L83.023 63.988a.387.387 0 0 1-.09.012ZM155.301 63a.312.312 0 0 1-.13-.029l-27.374-12.38a.309.309 0 0 1-.154-.41.316.316 0 0 1 .415-.154l27.374 12.38a.31.31 0 0 1-.13.593Z"></path><path fill="#5B252C" fill-rule="nonzero" d="m146.09 55.34-9.719 2.539-6.505-8.98-17.688 4.623-1.01 10.943-9.477 2.477 5.601-48.48 9.447-2.468 29.352 39.346Zm-21.154-13.246-10.311-14.58-1.66 17.88 11.971-3.3Z"></path><path fill="#93778B" d="m116.74 15.993-4.953-1.746-9.448 2.467 4.954 1.747z"></path><path fill="#724A5F" d="m101.692 66.941-4.954-1.746 5.601-48.48 4.954 1.746zM131.419 56.132l4.953 1.747-6.505-8.98-3.102.81zM120.085 40.493l-5.891-8.339.431-4.64 10.311 14.58z"></path><path fill="#93778B" d="m113.254 42.277 6.831-1.784 4.851 1.6-11.97 3.3z"></path><path fill="#EA971D" fill-rule="nonzero" d="M109.932 77a.318.318 0 0 1-.305-.234l-13-46.135a.322.322 0 0 1 .217-.398l45.367-13.22a.316.316 0 0 1 .241.026.324.324 0 0 1 .151.194l12.999 46.135a.323.323 0 0 1-.217.4l-45.366 13.22a.325.325 0 0 1-.087.012ZM97.325 30.762l12.825 45.516 44.756-13.041-12.824-45.516-44.757 13.041Z"></path><path fill="#EA971D" fill-rule="nonzero" d="M96.824 31a.306.306 0 0 1-.121-.025L70.81 20.108a.319.319 0 0 1-.195-.315c.008-.135.1-.25.23-.287l43.267-12.494a.304.304 0 0 1 .195.008l28.097 10.234a.321.321 0 0 1-.02.609L96.913 30.988a.334.334 0 0 1-.089.012ZM71.892 19.87l24.952 10.473 44.42-12.822-27.076-9.863-42.296 12.211Z"></path><path fill="#EA971D" fill-rule="nonzero" d="M109.302 77a.301.301 0 0 1-.136-.03L83.117 64.31a.316.316 0 0 1-.166-.2L70.627 20.406a.321.321 0 0 1 .092-.325.308.308 0 0 1 .329-.057l25.527 10.809a.317.317 0 0 1 .181.208l12.846 45.554a.324.324 0 0 1-.099.331.307.307 0 0 1-.201.074ZM83.515 63.796l25.294 12.294-12.612-44.728-24.788-10.494 12.106 42.928Z"></path><path fill="url(#J)" d="m.911 41.563 30.074 21.288V25.078L.911 10.02z" transform="translate(586.852 169.465)"></path><path fill="url(#K)" d="m59.236 43.332-29.162 19.52V24.984L59.236 10.93z" transform="translate(586.852 169.465)"></path><path fill="url(#L)" d="m30.274 25.505 28.962-14.199L29.925 0 0 10.255z" transform="translate(586.852 169.465)"></path><path fill="#F2D265" d="M645.828 213.188c-.04 0-.08-.01-.117-.028l-28.946-14.9-29.55 13.053a.258.258 0 0 1-.341-.137.267.267 0 0 1 .135-.348l29.661-13.103a.254.254 0 0 1 .22.007l29.056 14.955c.128.066.18.225.115.356a.261.261 0 0 1-.233.145Z"></path><path fill="#F2D265" d="M617.382 198.614c-.203 0-.366-.116-.366-.258v-28.633c0-.142.164-.258.366-.258.203 0 .366.116.366.258v28.633c0 .142-.163.258-.366.258Z"></path><path fill="#FFF" d="M600.522 191.466c0 9.566 7.5 14.06 7.5 15.849l.522 6.784H624.397l.522-6.784c-.001-1.79 7.5-5.89 7.5-15.849 0-7.523-7.189-12.892-15.938-12.892-8.75 0-15.959 5.553-15.959 12.892Z" opacity=".5"></path><path fill="#FFF" fill-rule="nonzero" d="M625.192 213.188H608.66l-.018-.238c-.529-6.688-.529-6.691-.529-6.706 0-.435-.703-1.223-1.594-2.22-2.243-2.513-5.997-6.72-5.997-13.398 0-7.269 7.21-12.963 16.415-12.963 9.346 0 16.393 5.573 16.393 12.963 0 6.991-3.781 11.078-6.04 13.519-.867.935-1.55 1.673-1.55 2.1 0 .014 0 .017-.53 6.705l-.018.238Zm-16.044-.516h15.559c.093-1.183.504-6.367.509-6.445-.001-.607.67-1.332 1.685-2.43 2.208-2.385 5.905-6.378 5.905-13.17 0-7.096-6.823-12.447-15.868-12.447-8.91 0-15.89 5.467-15.89 12.447 0 6.483 3.674 10.599 5.869 13.057 1.037 1.163 1.723 1.931 1.723 2.561l.508 6.427Z"></path><g fill="#FFF"><path fill-rule="nonzero" d="M610.2 197.092c-1.226 0-2.225-.966-2.225-2.152 0-1.187.999-2.153 2.225-2.153s2.224.966 2.224 2.153c0 1.186-.997 2.152-2.224 2.152Zm0-3.534c-.787 0-1.428.62-1.428 1.382 0 .761.64 1.38 1.428 1.38.786 0 1.427-.619 1.427-1.38 0-.762-.64-1.382-1.427-1.382ZM625.225 197.092c-1.226 0-2.224-.966-2.224-2.152 0-1.187.998-2.153 2.224-2.153 1.226 0 2.224.966 2.224 2.153 0 1.186-.998 2.152-2.224 2.152Zm0-3.534c-.787 0-1.427.62-1.427 1.382 0 .761.64 1.38 1.427 1.38s1.428-.619 1.428-1.38c0-.762-.641-1.382-1.428-1.382Z"></path><path d="M621.004 213.153h-6.816l-3.96-16.407.775-.174 3.816 15.81h5.56l4.024-15.82.774.184zM624.106 193.544c-1.035-1.635-3.05-3.584-6.769-3.584-3.653 0-5.38 1.893-6.186 3.48l-.715-.34c.741-1.461 2.624-3.91 6.901-3.91 4.303 0 6.514 2.476 7.449 3.951l-.68.403Z"></path></g><path fill="#93778B" d="m610.173 216.186-1.449 1.985c0 2.782 5.547 5.037 8.344 5.037h.232c2.797 0 7.828-2.255 7.828-5.037l-1.466-1.985c0-2.783-13.49-2.783-13.49 0Z"></path><path fill="url(#M)" d="M39.187 40.99s-1.937 1.334-8.284 1.334c-6.349 0-9.031-1.334-9.031-1.334l.541 8.628s3.596 1.392 8.49 1.392c4.893 0 7.761-1.392 7.761-1.392l.523-8.628Z" transform="translate(586.852 169.465)"></path><path fill="#F2D265" fill-rule="nonzero" d="M617.574 233.228a.262.262 0 0 1-.153-.048l-30.457-21.445a.261.261 0 0 1-.112-.213v-31.775a.264.264 0 0 1 .382-.234l30.458 15.169c.089.044.145.134.145.233v38.051a.261.261 0 0 1-.263.262Zm-30.195-21.842 29.93 21.074v-37.383l-29.93-14.906v31.215Z"></path><path fill="#F2D265" fill-rule="nonzero" d="M618.097 233.228a.257.257 0 0 1-.26-.258v-37.49c0-.099.057-.189.146-.232l28.644-13.915a.26.26 0 0 1 .373.232v32.08a.258.258 0 0 1-.114.213l-28.643 19.325a.26.26 0 0 1-.146.045Zm.26-37.588v36.843l28.124-18.975v-31.53l-28.125 13.662ZM617.12 194.97a.255.255 0 0 1-.117-.027L586.996 180a.258.258 0 0 1-.143-.247.26.26 0 0 1 .175-.227l29.662-10.047a.267.267 0 0 1 .177.003l29.055 11.078a.26.26 0 0 1 .166.228.259.259 0 0 1-.146.244l-28.709 13.91a.242.242 0 0 1-.113.028Zm-29.338-15.154 29.34 14.61 28.057-13.597-28.41-10.832-28.987 9.819Z"></path><path fill="url(#N)" d="m524.834 624.876-29.337-5.34 17.775-8.74 24.779 1.738z" transform="translate(70 -1)"></path><path fill="url(#O)" d="M193.117.642H36.924L.328 36.741h226.097z" transform="translate(0 638)"></path><path fill="#B5A8AE" d="m226.425 674.741-33.308-36.099v36.099z"></path><path fill="url(#P)" d="M36.924.642.328 36.741h36.65V.642z" transform="translate(0 638)"></path><path fill="url(#Q)" d="M179.826 6.144 176.181.66h-4.197L93.54 327.763h16.087z" transform="translate(66 346)"></path><path fill="url(#R)" d="M108.157 6.135 105.076.66h-4.52L5 327.763h18.723z" transform="translate(66 346)"></path><path fill="url(#S)" d="M98.71 42.306c-.886 0-8.479 1.562-6.954 4.249 1.416 2.493 4.018 4.594 4.537 4.594l61.663.78 2.308-9.623H98.71Z" transform="translate(66 346)"></path><path fill="url(#T)" d="M85.527 92.09c-.886 0-8.962 1.965-7.272 4.55 1.614 2.47 4.498 4.293 5.015 4.293l62.617 1.324 2.438-10.166H85.527Z" transform="translate(66 346)"></path><path fill="url(#U)" d="M70.833 148.646c-.885 0-10.007 3.26-8.134 5.715 1.72 2.256 5.199 3.128 5.716 3.128l63.901 1.35 2.445-10.192H70.833Z" transform="translate(66 346)"></path><path fill="url(#V)" d="M54.11 212.355c-.885 0-10.172 4.278-8.32 6.749 1.446 1.929 5.385 2.095 5.903 2.095l65.34 1.38 2.45-10.224H54.11Z" transform="translate(66 346)"></path><path fill="url(#W)" d="M105.076.66h-9.04L.481 327.763h16.142z" transform="translate(66 346)"></path><path fill="url(#X)" d="M94.997 38.325c-.886 0-3.742.981-4.321 4.017-.53 2.781 1.385 4.826 1.903 4.826l66.452.28 2.188-9.123H94.997Z" transform="translate(66 346)"></path><path fill="url(#Y)" d="M81.47 88.081c-.886 0-3.741.983-4.322 4.017-.53 2.783 1.387 5.474 1.904 5.474l67.691.572 2.413-10.063H81.47Z" transform="translate(66 346)"></path><path fill="url(#Z)" d="M65.781 145.165c-.885 0-3.741.98-4.321 4.016-.53 2.781 1.386 5.797 1.903 5.797l69.668.882 2.564-10.695H65.781Z" transform="translate(66 346)"></path><path fill="url(#aa)" d="M48.726 209.43c-.885 0-3.741.982-4.32 4.017-.532 2.782 1.385 6.121 1.902 6.121l71.157 1.201 2.72-11.339H48.726Z" transform="translate(66 346)"></path><path fill="url(#ab)" d="M176.181.66h-9.039L88.697 327.763h13.343z" transform="translate(66 346)"></path><path fill="url(#ac)" d="M82.612 23.662c3.697-2.513 8.517-9.788 12.454-13.48 3.148-2.95 9.728-8.204 12.292-9.104 2.973-1.043 6.428-.041 6.428-.041s2.973-.6 4.741-.08c1.631.48 2.089 1.284 2.089 1.284s2.971-.478 4.66-.16c1.908.358 2.57 2.246 2.41 4.09-.16 1.846-8.597 14.684-15.185 17.812-6.588 3.128-14.703 5.135-17.837 8.666-3.134 3.53-12.052-8.987-12.052-8.987Z" transform="translate(25 485)"></path><path fill="url(#ad)" d="M.712 138.394c2.357-7.704 27.746-54.558 43.816-76.06 16.07-21.502 33.746-38.833 34.87-39.314 1.125-.482 7.392-.482 11.088 2.086 3.696 2.567 5.946 6.098 5.785 7.863-.16 1.766-12.844 23.256-18.64 38.83-5.797 15.577-24.586 59.373-24.586 59.373L.712 138.394Z" transform="translate(25 485)"></path><path fill="#C97165" d="M152.61 490.81c-.028-.307-.248-.513-.534-.597-.283-.084-.6-.08-.906-.036-.617.092-1.21.34-1.752.655-.547.313-1.01.737-1.486 1.176l-1.403 1.343c-.936.9-1.88 1.804-2.897 2.645-.511.418-1.04.822-1.62 1.182-.585.345-1.2.702-2.034.761a.51.51 0 1 1-.075-1.015c.015-.001.027-.003.041-.003l.011.002c.477.003 1.064-.247 1.596-.535a14.17 14.17 0 0 0 1.581-1.033c1.027-.758 2.009-1.601 2.987-2.45l1.482-1.273c.497-.414 1.023-.846 1.625-1.149.595-.306 1.236-.533 1.91-.599.337-.03.686-.021 1.02.1.167.06.328.159.45.3.12.134.188.343.196.5l.001.013a.097.097 0 0 1-.091.102.095.095 0 0 1-.102-.088ZM146.55 487.232a12.072 12.072 0 0 0-3.128 1.535c-.48.325-.94.68-1.39 1.052-.455.37-.88.763-1.404 1.144a.513.513 0 1 1-.554-.862l.007-.003c.469-.263.963-.62 1.464-.946.502-.327 1.02-.643 1.557-.923a12.64 12.64 0 0 1 3.388-1.22h.004a.114.114 0 0 1 .135.09.118.118 0 0 1-.08.133ZM139.774 485.993c-1.001.316-1.888.899-2.71 1.547-.41.324-.802.674-1.174 1.039-.36.359-.75.768-.99 1.126l-.017.025a.452.452 0 0 1-.629.126.45.45 0 0 1-.098-.668c.41-.49.81-.808 1.24-1.164.428-.343.871-.661 1.33-.956.917-.583 1.908-1.097 2.982-1.321a.127.127 0 0 1 .152.097.13.13 0 0 1-.086.149Z"></path><path fill="#5C60D5" fill-rule="nonzero" d="M112.855 559.321c-4.362 0-7.91-4.381-7.91-9.768 0-5.387 3.548-9.769 7.91-9.769 4.36 0 7.908 4.382 7.908 9.769 0 5.387-3.548 9.768-7.908 9.768Zm-.083-17.422c-2.915 0-5.205 3.762-5.205 7.655 0 3.894 2.33 7.527 5.246 7.527 2.915 0 5.327-3.633 5.327-7.527 0-3.893-2.454-7.655-5.368-7.655Z"></path><path fill="url(#ae)" d="M59.616 20.173c2.378 6.851 5.574 32.986-1.31 47.025C51.93 80.195 45.027 78.7 45.027 78.7l-.164 16.914L7.16 94.093s7.87-14.04 9.345-23.681c1.474-9.641 7.704-36.37 11.965-41.95 4.262-5.583 31.146-8.289 31.146-8.289Z" transform="translate(50 512)"></path><path fill="url(#af)" d="M67.43 3.99c2.316 3.3 2.086 11.733-3.168 16.466C58.25 25.87 49.235 24.46 48.25 31.902c-.723 5.476 4.956 10.96 6.612 14.49 1.64 3.495 1.967 7.668.11 8.796-1.996 1.211-3.806-1.429-4.317-3.213-.546-1.907-1.217-5.252-4.754-4.906-4.043.395-8.906 8.459-4.59 12.743 1.762 1.748 4.918-.113 5.683 1.465 1.029 2.12-3.552 9.136-9.07 9.247-4.621.093-4.753-3.1-10.437-3.27-4.282-.128-10.326 4.398-10.983 3.158-.656-1.242-.847-4.276-2.404-7.33C12.407 59.753-2.4 47.857.987 28.685 3.415 14.954 13.336 7.515 25.194 5.288 37.024 3.066 44.92 3.09 47.98 2.186c3.058-.9 14.86-4.734 19.45 1.805Z" transform="translate(50 512)"></path><path fill="#C97165" d="m95.036 590.712.171-5.897a.334.334 0 0 1 .337-.33.337.337 0 0 1 .318.372l-.548 5.872a.14.14 0 0 1-.152.13.14.14 0 0 1-.126-.147Z"></path><path fill="url(#ag)" d="M70.416 34.688c-.394-.628-1.153-.414-1.763-.01l-14.89 9.819c.444.678.828 1.313 1.1 1.895.054.115.103.231.154.347L69.986 36.58c.607-.405.822-1.264.43-1.892Z" transform="translate(50 512)"></path><path fill="url(#ah)" d="M27.077 11.884c-.328-1.817.219-9.084 5.144-10.893C38.378-1.27 69.543-.51 76 12.42c-15.323 3.846-48.923-.535-48.923-.535Z" transform="translate(25 600)"></path><path fill="url(#ai)" d="M15.598 75H99.99c1.016-8.298 4.44-23.052 2.342-35.52C99.942 25.271 86.474 11.38 83 10.745c-2.477-.452-24.221-.743-31.824-.743-11.097 0-27.932-.116-32.802 1.484-8.39 2.758-17.24 12.77-18.03 14.845-.466 1.225-1.204 11.676 3.548 26.201C7.113 62.386 11.773 69.938 15.598 75Z" transform="translate(25 600)"></path><path fill="#BE4118" d="m35 663 5.388-8L46 663zM42.013 622 44 631l-10-1.67zM95.013 661 97 670l-10-1.67zM66 652.788 76 651l-1.854 9zM76 627l8 5.388L76 638z"></path><path fill="#EA971D" d="M59 627v-3.273A2.73 2.73 0 0 0 61.727 621 2.73 2.73 0 0 0 59 618.273V615c3.309 0 6 2.692 6 6 0 3.31-2.691 6-6 6ZM85.063 615l3.256.48c-.218 1.517.822 2.932 2.318 3.153 1.496.221 2.89-.834 3.108-2.351l3.255.482c-.479 3.338-3.546 5.658-6.838 5.171-3.291-.485-5.578-3.597-5.099-6.935ZM44.095 616.15c1.845-1.118 2.877-3.105 2.905-5.15-1.368.187-2.497.411-3.296.687a.693.693 0 0 1-.062.022 2.737 2.737 0 0 1-1.202 1.59 2.644 2.644 0 0 1-2.493.137A33.31 33.31 0 0 0 37 615.362c1.882 1.796 4.772 2.2 7.095.788ZM29.693 652l-.734-2.955c1.375-.333 2.22-1.71 1.883-3.068-.338-1.359-1.731-2.194-3.107-1.86L27 641.16c3.027-.733 6.094 1.103 6.836 4.09.744 2.99-1.115 6.018-4.143 6.749ZM49 641h3.273A2.73 2.73 0 0 0 55 643.727 2.73 2.73 0 0 0 57.728 641H61c0 3.308-2.691 6-6 6-3.308 0-6-2.692-6-6ZM52.713 662l2.26 2.261a2.665 2.665 0 0 0 0 3.765 2.665 2.665 0 0 0 3.767.001l2.26 2.26a5.867 5.867 0 0 1-8.287 0 5.867 5.867 0 0 1 0-8.287ZM110.714 660l2.26 2.261a2.665 2.665 0 0 0 0 3.765 2.665 2.665 0 0 0 3.766.001l2.26 2.26a5.867 5.867 0 0 1-8.286 0 5.866 5.866 0 0 1 0-8.287ZM93 639v3.272A2.73 2.73 0 0 0 90.273 645 2.73 2.73 0 0 0 93 647.728V651c-3.309 0-6-2.692-6-6 0-3.31 2.692-6 6-6ZM80 675h-3.273a2.73 2.73 0 0 0-2.728-2.727A2.73 2.73 0 0 0 71.27 675H68c0-3.308 2.692-6 6-6 3.309 0 6 2.692 6 6Z"></path><path fill="url(#aj)" d="M58.969 45.7c-.492-4.158-.656-8.97-2.703-15.414-2.048-6.443-3.467-8.993-3.22-12.256 2.158.036 5.678.022 5.678.022-.098 1.037.759-6.563 3.85-10.358C65.63 3.942 70.71-.516 73.548.108c.92.203.436 2.962.436 2.962s4.5-1.457 6.363-1.005c1.228.3 1.228 1.877 1.228 1.877s1.72-.163 2.294.815c.574.979-1.305 3.004-2.047 4.65-1.026 2.27-1.769 3.67-1.967 7.503-.377 7.332-1.064 13.05-2.457 15.987-1.392 2.935-1.474 7.992-1.474 10.683 0 2.692-16.956 2.12-16.956 2.12Z" transform="translate(98 554)"></path><path fill="#C97165" d="M173.043 556.903c-1.154.548-2.164 1.371-3.112 2.23-.94.872-1.812 1.822-2.551 2.85a.39.39 0 0 1-.634-.449l.017-.02a19.93 19.93 0 0 1 2.822-2.779c1.027-.817 2.11-1.594 3.347-2.088a.143.143 0 0 1 .184.078.144.144 0 0 1-.073.178ZM179.813 558.07c-.995.385-1.813 1.11-2.538 1.887-.72.785-1.355 1.66-1.889 2.572a.443.443 0 0 1-.601.162.438.438 0 0 1-.162-.6c.007-.01.017-.023.023-.034a15.92 15.92 0 0 1 2.22-2.513c.826-.74 1.761-1.43 2.853-1.746a.146.146 0 0 1 .18.095.15.15 0 0 1-.086.176ZM156.984 571.529c-.217.928-.182 1.895-.088 2.85.05.476.12.954.206 1.428.084.479.185.939.284 1.436a.419.419 0 0 1-.824.161c-.003-.011-.004-.023-.006-.036l-.001-.01c-.05-.466-.114-.969-.154-1.46-.043-.494-.072-.99-.079-1.487-.009-.99.046-2.007.36-2.964a.156.156 0 0 1 .196-.103.16.16 0 0 1 .106.185Z"></path><path fill="url(#ak)" d="M57.33 44.45c1.311-1.868 6.117-4.35 10.813-4.457 4.696-.11 9.938 2.174 10.265 3.805.327 1.632 10.048 66.444-2.511 75.798-8.52 6.345-70.723-14.567-74.044-22.076-2.384-5.39-1.567-15.415-.22-20.825 1.64-6.58 4.974-14.843 11.25-16.15 4.313-.898 19.189 8.726 28.619 14.482 6.77 4.132 14.628 9.986 14.628 9.986l1.2-40.562Z" transform="translate(98 554)"></path><path fill="#EA971D" d="M177.734 607.463a366.54 366.54 0 0 0-.575-4.495c-10.537-4.019-18.027-.574-22.033 2.405l-.161 5.426c1.582-1.884 9.205-9.642 22.769-3.336Z"></path><path fill="url(#al)" d="M73.384 106.437c1.68-.38 2.268-4.891 2.268-4.891S61.507 88.766 56.13 85.014c0 0-7.858-5.854-14.628-9.986-9.43-5.756-24.305-15.38-28.62-14.483-4.006.834-6.813 4.505-8.745 8.762 11.97 2.9 29.046 13.977 34.957 17.23 17.828 9.813 32.055 20.408 34.291 19.9Z" transform="translate(98 554)"></path><path fill="#EA971D" d="M173.67 656.824a.651.651 0 0 1-.636-.807c2.065-8.378 1.75-41.424-1.857-51.53a.653.653 0 0 1 .397-.833.658.658 0 0 1 .837.396c3.755 10.517 4.044 43.558 1.894 52.278a.655.655 0 0 1-.636.496Z"></path><path fill="#EA971D" d="M171.228 661.105c-1.58 0-5.108-2.178-12.931-7.102-5.931-3.732-13.312-8.376-21.52-12.895-1.13-.622-2.67-1.53-4.453-2.58-7.67-4.517-20.51-12.077-30.115-14.404a.653.653 0 1 1 .31-1.27c9.794 2.375 22.739 9.997 30.471 14.552 1.775 1.045 3.307 1.947 4.42 2.56 8.242 4.536 15.641 9.192 21.586 12.934 5.782 3.638 11.249 7.082 12.245 6.9.814-.185 1.644-2.653 1.928-4.36a.651.651 0 0 1 .755-.538c.357.06.598.394.538.752-.137.825-.926 4.964-2.931 5.42a1.4 1.4 0 0 1-.303.031Z"></path></g></svg>